<svg xmlns="http://www.w3.org/2000/svg" xmlns:xlink="http://www.w3.org/1999/xlink" width="25.609" height="31" viewBox="0 0 25.609 31"><defs><clipPath id="a"><rect width="25.609" height="31" fill="none"/></clipPath></defs><g clip-path="url(#a)"><g fill="#fff" stroke="#ef9a9a" stroke-width="0.7"><rect width="25.609" height="31" rx="1" stroke="none"/><rect x="0.35" y="0.35" width="24.909" height="30.3" rx="0.65" fill="none"/></g><g transform="translate(10.599 12.804)"><g transform="translate(0 0)"><path d="M41.362,10.739,39.476,7.426a.531.531,0,0,0,.293-.522l-.14-1.172.8-.841a.525.525,0,0,0,.013-.7l-.8-.867.166-1.185a.527.527,0,0,0-.408-.561l-1.16-.229L37.679.315a.5.5,0,0,0-.65-.242h-.013l-1.07.5L34.9.06a.5.5,0,0,0-.675.2L33.652,1.3l-1.16.2a.523.523,0,0,0-.421.573l.14,1.172-.8.841a.525.525,0,0,0-.013.7l.8.867-.166,1.185a.525.525,0,0,0,.331.535l-1.9,3.364a.259.259,0,0,0,0,.255.263.263,0,0,0,.217.127h2.039l.93,1.618a.263.263,0,0,0,.217.127.247.247,0,0,0,.217-.127L35.908,9.63l1.822,3.148a.263.263,0,0,0,.217.127.247.247,0,0,0,.217-.127l.93-1.657h2.039a.247.247,0,0,0,.217-.127A.211.211,0,0,0,41.362,10.739ZM33.882,12.1l-.79-1.364a.263.263,0,0,0-.217-.127H31.116L32.875,7.5l.726.127.561,1.032a.5.5,0,0,0,.65.242h.013l.522-.242.255.446Zm.739-3.657h-.013l-.561-1.058a.476.476,0,0,0-.357-.242l-1.172-.217.166-1.172a.5.5,0,0,0-.127-.421l-.79-.867.8-.841a.479.479,0,0,0,.14-.421l-.14-1.16a.039.039,0,0,1,.013-.025l1.16-.2a.516.516,0,0,0,.357-.255L34.672.531l1.045.51a.487.487,0,0,0,.459,0L37.233.557h.013l.561,1.058a.476.476,0,0,0,.344.242l1.16.229-.166,1.172a.5.5,0,0,0,.127.421l.8.867-.816.841a.479.479,0,0,0-.14.421l.14,1.172-1.147.191a.516.516,0,0,0-.357.255l-.573,1.032-1.045-.51a.487.487,0,0,0-.459,0Zm4.333,2.166a.247.247,0,0,0-.217.127l-.79,1.4-1.8-3.109a.205.205,0,0,0-.051-.089l-.28-.5.089-.038,1.045.51a.524.524,0,0,0,.675-.2L38.2,7.681l.765-.14,1.746,3.071Z" transform="translate(-30.433 0)" fill="#ef9a9a"/><path d="M127.386,63.624a2.549,2.549,0,1,0-2.549,2.549A2.556,2.556,0,0,0,127.386,63.624Zm-2.549,2.039a2.039,2.039,0,1,1,2.039-2.039A2.045,2.045,0,0,1,124.837,65.663Z" transform="translate(-119.362 -59.129)" fill="#ef9a9a"/></g></g></g></svg>