<svg xmlns="http://www.w3.org/2000/svg" xmlns:xlink="http://www.w3.org/1999/xlink" width="25.281" height="31.018" viewBox="0 0 25.281 31.018"><defs><clipPath id="a"><rect width="25.28" height="31.018" fill="none"/></clipPath></defs><g clip-path="url(#a)"><path d="M68.714,7.611a.388.388,0,0,0-.02-.1c0-.013-.008-.025-.013-.037a.393.393,0,0,0-.077-.115L61.363.115a.393.393,0,0,0-.115-.077A.347.347,0,0,0,61.21.025a.406.406,0,0,0-.1-.02C61.1,0,61.092,0,61.084,0h-11.5a.394.394,0,0,0-.394.394V6.46H43.833a.394.394,0,0,0-.394.394v23.77a.394.394,0,0,0,.394.394H62.575a.394.394,0,0,0,.394-.394V24.558h5.356a.394.394,0,0,0,.394-.394V7.635A.25.25,0,0,0,68.714,7.611Zm-1.34-.369h-5.9v-5.9ZM62.181,30.229H44.227V7.248H54.94V14.1a.394.394,0,0,0,.394.394h6.847v15.74ZM55.728,7.8l5.9,5.9h-5.9ZM62.969,23.77V14.1a.249.249,0,0,0-.005-.025.388.388,0,0,0-.02-.1c0-.013-.008-.025-.013-.037a.393.393,0,0,0-.077-.115L55.612,6.575A.394.394,0,0,0,55.5,6.5c-.012-.006-.024-.009-.037-.013a.373.373,0,0,0-.1-.02c-.008,0-.016-.005-.025-.005H49.978V.788H60.69V7.635a.394.394,0,0,0,.394.394h6.847V23.77H62.969Z" transform="translate(-43.439)" fill="#ffbe0b"/><path d="M146.431,235.28h-.788v2.807h-2.807v.788h2.807v2.807h.788v-2.807h2.807v-.788h-2.807Z" transform="translate(-136.271 -219.743)" fill="#ffbe0b"/></g></svg>