<svg xmlns="http://www.w3.org/2000/svg" width="20.906" height="25.979" viewBox="0 0 20.906 25.979"><g transform="translate(-207.563 -185.178)"><path d="M224.321,218.181a7.535,7.535,0,0,1-2.394-3.014,7.013,7.013,0,0,1-.708-2.845v-9.01l9.459-4.628,7.8,3.828V202.5l-9.459-4.642-9.459,4.628v9.01a7.013,7.013,0,0,0,.708,2.845,7.535,7.535,0,0,0,2.394,3.014l6.357,4.332.221-.15Z" transform="translate(-11.005 -11.626)" fill="#d4e1f4"/><g transform="translate(207.562 185.178)"><path d="M228.191,190.114l-9.956-4.885a.5.5,0,0,0-.438,0l-9.956,4.871a.5.5,0,0,0-.279.447v9.32a7.9,7.9,0,0,0,.8,3.264,8.55,8.55,0,0,0,2.736,3.417l6.638,4.522a.5.5,0,0,0,.56,0l6.638-4.522a8.919,8.919,0,0,0,3.536-6.681v-9.306A.5.5,0,0,0,228.191,190.114Zm-.716,9.753a7.941,7.941,0,0,1-3.1,5.859l-6.357,4.332-6.357-4.332a7.535,7.535,0,0,1-2.394-3.014,7.013,7.013,0,0,1-.708-2.845v-9.01l9.459-4.628,9.459,4.642Z" transform="translate(-207.562 -185.178)" fill="#0635c9"/><path d="M288.53,312.416a.5.5,0,1,0-.7.7l2.418,2.418a.5.5,0,0,0,.7,0l4.213-4.213a.5.5,0,0,0-.7-.7l-3.861,3.861Z" transform="translate(-281.041 -300.091)" fill="#1ae5be"/></g></g></svg>