<?xml version="1.0" standalone="no"?><!DOCTYPE svg PUBLIC "-//W3C//DTD SVG 1.1//EN" "http://www.w3.org/Graphics/SVG/1.1/DTD/svg11.dtd"><svg class="icon" height="512" viewBox="0 0 1024 1024" version="1.1" xmlns="http://www.w3.org/2000/svg"><path d="M585.92 68.672A417.408 417.408 0 0 0 518.528 63.232a457.792 457.792 0 0 0-140.032 21.376 440.128 440.128 0 0 0-188.864 120.512C113.92 287.936 74.112 385.6 71.104 497.728a434.368 434.368 0 0 0 68.288 247.168c11.648 18.56 24.64 36.096 39.04 52.608l9.728 11.264c0.512 0.576 0.768 1.344 1.216 1.984l22.784 22.784c1.984 1.472 4.096 2.752 5.888 4.416 28.736 25.984 60.416 47.808 94.912 65.408a432 432 0 0 0 196.16 48.32 445.824 445.824 0 0 0 191.808-40.384 443.52 443.52 0 0 0 135.552-96.704c79.36-84.48 120.512-184.768 122.944-300.672a434.56 434.56 0 0 0-44.096-200.768 443.072 443.072 0 0 0-98.688-132.608 438.016 438.016 0 0 0-230.72-111.872z m315.712 429.44a380.416 380.416 0 0 1-52.8 204.928 367.232 367.232 0 0 1-34.304 49.152 381.44 381.44 0 0 1-44.736 46.208 376.128 376.128 0 0 1-159.552 83.904c-102.4 25.024-199.488 10.752-290.816-41.792a356.032 356.032 0 0 1-49.344-34.624 366.464 366.464 0 0 1-44.992-43.584c-61.312-70.848-93.568-153.024-96.192-246.784a379.456 379.456 0 0 1 66.368-224.896c14.4-21.056 29.952-39.552 46.976-56.768C316.992 161.28 406.272 122.368 510.72 120.96c76.8-1.024 148.096 19.2 212.928 60.864 26.56 17.088 50.88 36.992 72.448 60.16 67.072 72.192 102.848 157.44 105.536 256.128z" fill="#e00606" /><path d="M648.384 336.128L515.2 469.312 382.016 336.128a27.072 27.072 0 0 0-38.272 38.272l133.248 133.12-133.184 133.184a27.072 27.072 0 0 0 38.272 38.272l133.12-133.184 133.184 133.184a27.072 27.072 0 0 0 38.272-38.272L553.472 507.52l133.184-133.184a27.072 27.072 0 1 0-38.272-38.208z" fill="#e00606" /></svg>