<svg height="431pt" viewBox="-10 0 431 431.028" width="431pt" xmlns="http://www.w3.org/2000/svg"><path d="m312.242188 397.867188c0-.066407-245.144532.542968-245.144532.542968h-.167968c-9.125-.082031-17.773438-4.105468-23.714844-11.03125-6.503906-7.449218-10.054688-17.015625-9.988282-26.902344l-1.441406-339.121093c-.023437-4.53125.671875-9.042969 2.066406-13.355469-4.734374 2.003906-8.949218 5.070312-12.304687 8.96875-6.4375 7.507812-9.910156 17.113281-9.761719 27.003906l1.445313 339.121094c-.070313 9.886719 3.484375 19.453125 9.984375 26.898438 5.945312 6.929687 14.589844 10.953124 23.714844 11.035156h.167968l246.890625-.875zm0 0" fill="#d4e1f4"/><path d="m369.660156 182.390625c-2.183594-2.496094-5.972656-2.746094-8.46875-.5625l-41.597656 36.421875v-104.300781c0-1.59375-.632812-3.121094-1.761719-4.246094l-107.949219-107.726563c-.027343-.023437-.058593-.042968-.085937-.070312-1.347656-1.464844-3.34375-2.152344-5.308594-1.828125l-.5-.046875c-.199219-.0195312-.402343-.03125-.601562-.03125h-157.371094c-25.394531.0273438-45.9726562 20.605469-46 46v339.027344c.0273438 25.394531 20.605469 45.972656 46 46h227.574219c25.390625-.027344 45.96875-20.605469 46-46v-68.367188l90.375-79.121094c2.492187-2.183593 2.746094-5.972656.5625-8.46875zm-158.238281-161.925781 87.890625 87.707031h-53.890625c-18.769531-.023437-33.980469-15.234375-34-34zm96.167969 364.5625c-.023438 18.769531-15.230469 33.980468-34 34h-227.574219c-18.769531-.019532-33.980469-15.230469-34-34v-339.027344c.019531-18.769531 15.230469-33.976562 34-34h153.40625v62.171875c.027344 25.390625 20.605469 45.96875 46 46h62.167969v108.585937l-77.265625 67.640626c-.976563.855468-1.652344 2.003906-1.921875 3.277343l-10.480469 49.613281c-.371094 1.769532.070313 3.613282 1.210937 5.019532 1.140626 1.402344 2.851563 2.21875 4.660157 2.21875.113281 0 .226562 0 .34375-.007813l51.347656-2.933593c1.335937-.074219 2.605469-.59375 3.613281-1.476563l28.492188-24.945313zm-34.847656-43.300782-41.457032 2.367188 8.445313-39.980469 124.851562-109.296875 32.964844 37.652344zm0 0" fill="#0635c9"/><g fill="#1ae5be"><path d="m61.105469 294.714844c-3.3125 0-6 2.683594-6 6 0 3.3125 2.6875 6 6 6h131.59375c3.316406 0 6-2.6875 6-6 0-3.316406-2.683594-6-6-6zm0 0"/><path d="m198.699219 356.507812c0-3.3125-2.683594-6-6-6h-131.59375c-3.3125 0-6 2.6875-6 6s2.6875 6 6 6h131.59375c3.316406 0 6-2.6875 6-6zm0 0"/><path d="m68.539062 249.441406c0 3.3125 2.683594 6 6 6h113.136719c3.3125 0 6-2.6875 6-6v-88.492187h17.429688c2.597656 0 4.902343-1.671875 5.707031-4.140625.804688-2.472656-.074219-5.179688-2.175781-6.707032l-27.421875-19.96875c.046875-.292968.070312-.589843.070312-.890624v-24.140626c0-3.3125-2.683594-6-6-6-3.3125 0-6 2.6875-6 6v16.347657l-40.644531-29.59375c-2.105469-1.53125-4.957031-1.53125-7.0625 0l-80 58.246093c-2.101563 1.527344-2.980469 4.234376-2.175781 6.707032.804687 2.46875 3.109375 4.140625 5.707031 4.140625h17.429687zm62.566407-145.3125 61.566406 44.820313h-5c-3.316406 0-6 2.6875-6 6v88.492187h-101.132813v-88.492187c0-3.3125-2.6875-6-6-6h-5zm0 0"/></g></svg>