<svg xmlns="http://www.w3.org/2000/svg" width="637.231" height="582.435" viewBox="0 0 637.231 582.435">
  <g id="Group_1988" data-name="Group 1988" transform="translate(-11328.342 -2430.818)">
    <g id="_017-eco_house" data-name="017-eco house" transform="translate(11328.342 2430.818)">
      <path id="Path_7223" data-name="Path 7223" d="M339.127,63.422,55.054,270.237h42.41L360.332,78.859Z" transform="translate(-20.511 -44.448)" fill="#d4e1f4"/>
      <path id="Path_7224" data-name="Path 7224" d="M143.286,209.718h-42.41a8.482,8.482,0,0,1,8.482,8.482V549.4h42.41V218.2A8.482,8.482,0,0,0,143.286,209.718Z" transform="translate(-1.555 16.072)" fill="#d4e1f4"/>
      <path id="Path_7225" data-name="Path 7225" d="M39.1,292.754h82.358v331.2a8.482,8.482,0,0,0,8.482,8.482H568.532a8.482,8.482,0,0,0,8.482-8.482v-331.2H659.37a8.482,8.482,0,0,0,4.992-15.338L354.227,51.624a8.482,8.482,0,0,0-9.983,0L34.108,277.415A8.482,8.482,0,0,0,39.1,292.754ZM349.235,68.974,633.308,275.8H568.532a8.482,8.482,0,0,0-8.482,8.482V615.471H138.422v-331.2a8.482,8.482,0,0,0-8.482-8.482H65.162Z" transform="translate(-30.619 -50)" fill="#0635c9"/>
    </g>
  </g>
</svg>
