<svg xmlns="http://www.w3.org/2000/svg" xmlns:xlink="http://www.w3.org/1999/xlink" width="27.303" height="30.235" viewBox="0 0 27.303 30.235"><defs><clipPath id="a"><rect width="27.303" height="30.235" fill="none"/></clipPath></defs><g clip-path="url(#a)"><g fill="#fff" stroke="#a639ce" stroke-width="0.7"><rect width="21.235" height="25.916" rx="1" stroke="none"/><rect x="0.35" y="0.35" width="20.535" height="25.216" rx="0.65" fill="none"/></g><g transform="translate(6.067 4.319)" fill="#fff" stroke="#a639ce" stroke-width="0.7"><rect width="21.235" height="25.916" rx="1" stroke="none"/><rect x="0.35" y="0.35" width="20.535" height="25.216" rx="0.65" fill="none"/></g><g transform="translate(10.394 9.464)"><path d="M21.605,4.148a.506.506,0,0,0-.26-.322l-1.163-.639,1.163-.639a.519.519,0,0,0,.205-.726l-.28-.456a.525.525,0,0,0-.339-.247.577.577,0,0,0-.426.052l-1.163.635V.531a.5.5,0,0,0-.166-.374A.552.552,0,0,0,18.783,0h-.56a.552.552,0,0,0-.394.158.5.5,0,0,0-.166.374V1.805L16.5,1.17a.577.577,0,0,0-.426-.052.525.525,0,0,0-.339.247l-.28.457a.5.5,0,0,0-.055.4.506.506,0,0,0,.26.322l1.163.639-1.163.639a.505.505,0,0,0-.26.322.5.5,0,0,0,.055.4l.28.457a.525.525,0,0,0,.339.247A.578.578,0,0,0,16.5,5.2l1.163-.635V5.843a.5.5,0,0,0,.166.373.552.552,0,0,0,.394.158h.56a.552.552,0,0,0,.393-.158.5.5,0,0,0,.166-.373V4.569l1.163.635a.577.577,0,0,0,.426.052.525.525,0,0,0,.339-.247l.28-.457A.5.5,0,0,0,21.605,4.148Z" transform="translate(-15.381 0)" fill="#a639ce"/></g></g></svg>