<svg height="512pt" viewBox="0 -27 512 512" width="512pt" xmlns="http://www.w3.org/2000/svg"><path d="m256 443.316406 36.652344 14.960938c6.84375 2.792968 14.339844-2.242188 14.339844-9.636719v-72.964844h-101.984376v72.964844c0 7.394531 7.496094 12.429687 14.339844 9.636719zm0 0" fill="#ff6969"/><path d="m288.261719 375.675781h-83.253907v30.347657c14.363282 10.355468 31.972657 16.480468 50.992188 16.480468 6.6875 0 13.195312-.761718 19.449219-2.195312 6.550781-1.503906 12.8125 3.398437 12.8125 10.117187v26.058594l4.390625 1.792969c6.84375 2.792968 14.339844-2.242188 14.339844-9.632813v-72.96875s-10.023438 0-18.730469 0zm0 0" fill="#ea4747"/><path d="m491.1875 353.820312h-470.375c-11.496094 0-20.8125-9.316406-20.8125-20.8125v-312.195312c0-11.496094 9.316406-20.8125 20.8125-20.8125h470.375c11.496094 0 20.8125 9.316406 20.8125 20.8125v312.195312c0 11.496094-9.316406 20.8125-20.8125 20.8125zm0 0" fill="#7ae57d"/><path d="m494.308594.257812v326.507813c0 5.746094-4.660156 10.40625-10.40625 10.40625h-483.484375c1.929687 9.5 10.324219 16.648437 20.394531 16.648437h470.375c11.496094 0 20.8125-9.316406 20.8125-20.8125v-312.195312c0-10.429688-7.679688-19.042969-17.691406-20.554688zm0 0" fill="#66d166"/><path d="m474.535156 81.171875v191.480469c-24.140625 0-43.707031 19.5625-43.707031 43.707031h-349.65625c0-24.144531-19.566406-43.707031-43.707031-43.707031v-191.480469c24.140625 0 43.707031-19.566406 43.707031-43.707031h349.65625c0 24.140625 19.566406 43.707031 43.707031 43.707031zm0 0" fill="#ddf5ff"/><path d="m322.601562 335.089844c0 36.785156-29.816406 66.601562-66.601562 66.601562s-66.601562-29.816406-66.601562-66.601562c0-36.78125 29.816406-66.601563 66.601562-66.601563s66.601562 29.820313 66.601562 66.601563zm0 0" fill="#ffd664"/><path d="m256 295.199219c-21.996094 0-39.890625 17.894531-39.890625 39.890625s17.894531 39.890625 39.890625 39.890625 39.890625-17.894531 39.890625-39.890625-17.894531-39.890625-39.890625-39.890625zm0 64.632812c-13.644531 0-24.742188-11.101562-24.742188-24.742187 0-13.644532 11.097657-24.742188 24.742188-24.742188s24.742188 11.097656 24.742188 24.742188c0 13.640625-11.097657 24.742187-24.742188 24.742187zm0 0" fill="#f9c646"/><path d="m296.136719 281.945312c8.441406 11.160157 13.457031 25.0625 13.457031 40.136719 0 36.78125-29.820312 66.601563-66.601562 66.601563-15.074219 0-28.976563-5.015625-40.136719-13.457032 12.160156 16.074219 31.433593 26.464844 53.144531 26.464844 36.78125 0 66.601562-29.820312 66.601562-66.601562 0-21.707032-10.390624-40.984375-26.464843-53.144532zm0 0" fill="#f9c646"/><path d="m274.730469 218.535156c0 10.347656-8.386719 18.734375-18.730469 18.734375s-18.730469-8.386719-18.730469-18.734375c0-10.34375 8.386719-18.730468 18.730469-18.730468s18.730469 8.386718 18.730469 18.730468zm0 0" fill="#ffd664"/><g fill="#636363"><path d="m324.683594 95.21875h-137.367188c-4.308594 0-7.804687-3.492188-7.804687-7.804688 0-4.308593 3.496093-7.804687 7.804687-7.804687h137.367188c4.308594 0 7.804687 3.496094 7.804687 7.804687 0 4.3125-3.496093 7.804688-7.804687 7.804688zm0 0"/><path d="m376.714844 136.847656h-241.429688c-4.308594 0-7.804687-3.496094-7.804687-7.808594 0-4.308593 3.492187-7.804687 7.804687-7.804687h241.429688c4.3125 0 7.804687 3.496094 7.804687 7.804687 0 4.3125-3.492187 7.808594-7.804687 7.808594zm0 0"/><path d="m376.714844 178.472656h-241.429688c-4.308594 0-7.804687-3.496094-7.804687-7.804687 0-4.3125 3.492187-7.804688 7.804687-7.804688h241.429688c4.3125 0 7.804687 3.492188 7.804687 7.804688 0 4.308593-3.492187 7.804687-7.804687 7.804687zm0 0"/><path d="m376.714844 226.34375h-37.460938c-4.3125 0-7.808594-3.496094-7.808594-7.808594 0-4.308594 3.496094-7.804687 7.808594-7.804687h37.460938c4.308594 0 7.804687 3.496093 7.804687 7.804687 0 4.3125-3.492187 7.808594-7.804687 7.808594zm0 0"/><path d="m172.746094 226.34375h-37.460938c-4.308594 0-7.804687-3.496094-7.804687-7.808594 0-4.308594 3.492187-7.804687 7.804687-7.804687h37.460938c4.3125 0 7.808594 3.496093 7.808594 7.804687 0 4.3125-3.496094 7.808594-7.808594 7.808594zm0 0"/></g></svg>