<svg xmlns="http://www.w3.org/2000/svg" width="55.816" height="71.764" viewBox="0 0 55.816 71.764"><path d="M62.316,17.322,44.951,0H6.5V71.764H62.316Z" transform="translate(-6.5)" fill="#edeada"/><path d="M37.5,0V17.29H54.79Z" transform="translate(1.026)" fill="#cec9ae"/><g transform="translate(10 17.359)"><path d="M15.735,16.47H26.85a1.235,1.235,0,0,0,0-2.47H15.735a1.235,1.235,0,1,0,0,2.47Z" transform="translate(-14.5 -14)" fill="#cec9ae"/><path d="M36.73,36h-21a1.235,1.235,0,0,0,0,2.47h21a1.235,1.235,0,1,0,0-2.47Z" transform="translate(-14.5 -8.83)" fill="#cec9ae"/><path d="M44.38,29H35.735a1.235,1.235,0,1,0,0,2.47H44.38a1.235,1.235,0,1,0,0-2.47Z" transform="translate(-9.8 -10.475)" fill="#cec9ae"/><path d="M15.735,24.47H21.91a1.235,1.235,0,0,0,0-2.47H15.735a1.235,1.235,0,1,0,0,2.47Z" transform="translate(-14.5 -12.12)" fill="#cec9ae"/><path d="M30.735,24.47H39.38a1.235,1.235,0,0,0,0-2.47H30.735a1.235,1.235,0,1,0,0,2.47Z" transform="translate(-10.975 -12.12)" fill="#cec9ae"/><path d="M24.5,23.232a1.235,1.235,0,1,0,.358-.877A1.3,1.3,0,0,0,24.5,23.232Z" transform="translate(-12.15 -12.117)" fill="#cec9ae"/><path d="M20.735,29a1.235,1.235,0,0,0,0,2.47h12.35a1.235,1.235,0,0,0,0-2.47Z" transform="translate(-13.325 -10.475)" fill="#cec9ae"/><path d="M15.735,31.467a1.238,1.238,0,1,0-.877-2.112,1.271,1.271,0,0,0-.358.877,1.223,1.223,0,0,0,1.235,1.235Z" transform="translate(-14.5 -10.472)" fill="#cec9ae"/><path d="M44.38,43H35.735a1.235,1.235,0,1,0,0,2.47H44.38a1.235,1.235,0,1,0,0-2.47Z" transform="translate(-9.8 -7.184)" fill="#cec9ae"/><path d="M33.085,43H20.735a1.235,1.235,0,0,0,0,2.47h12.35a1.235,1.235,0,0,0,0-2.47Z" transform="translate(-13.325 -7.184)" fill="#cec9ae"/><path d="M14.858,43.355a1.251,1.251,0,0,0-.358.877,1.222,1.222,0,0,0,.358.877,1.3,1.3,0,0,0,.877.358,1.275,1.275,0,0,0,.877-.358,1.3,1.3,0,0,0,.358-.877,1.219,1.219,0,0,0-.358-.865A1.28,1.28,0,0,0,14.858,43.355Z" transform="translate(-14.5 -7.181)" fill="#cec9ae"/><path d="M42.735,24.467a1.3,1.3,0,0,0,.877-.358,1.252,1.252,0,0,0,0-1.754,1.24,1.24,0,1,0-.877,2.112Z" transform="translate(-8.155 -12.117)" fill="#cec9ae"/><path d="M38.612,38.109a1.235,1.235,0,1,0-1.754,0,1.227,1.227,0,0,0,.877.358A1.275,1.275,0,0,0,38.612,38.109Z" transform="translate(-9.33 -8.827)" fill="#cec9ae"/><path d="M41.858,36.355a1.252,1.252,0,0,0,0,1.754,1.252,1.252,0,0,0,1.754,0,1.24,1.24,0,1,0-1.754-1.754Z" transform="translate(-8.155 -8.827)" fill="#cec9ae"/></g></svg>