<?xml version="1.0" encoding="UTF-8"?>
<!DOCTYPE svg PUBLIC "-//W3C//DTD SVG 1.1//EN" "http://www.w3.org/Graphics/SVG/1.1/DTD/svg11.dtd">
<!-- Creator: CorelDRAW 2017 -->
<svg xmlns="http://www.w3.org/2000/svg" xml:space="preserve" width="37px" height="37px" version="1.1" style="shape-rendering:geometricPrecision; text-rendering:geometricPrecision; image-rendering:optimizeQuality; fill-rule:evenodd; clip-rule:evenodd"
viewBox="0 0 37 37"
 xmlns:xlink="http://www.w3.org/1999/xlink">
 <defs>
  <style type="text/css">
   <![CDATA[
    .fil0 {fill:black}
   ]]>
  </style>
 </defs>
 <g id="Layer_x0020_1">
  <metadata id="CorelCorpID_0Corel-Layer"/>
  <g id="_860280700352">
   <g>
    <path class="fil0" d="M19 1c-10,0 -18,8 -18,18 0,10 8,18 18,18 10,0 18,-8 18,-18 0,-10 -8,-18 -18,-18zm0 6l10 6 -21 0 10 -6zm10 17l0 0c0,1 -1,2 -2,2l-17 0c-1,0 -2,-1 -2,-2l0 -10c0,0 0,0 0,0l10 6c0,0 0,0 0,0 0,0 0,0 0,0 0,0 0,0 0,0 0,0 0,0 0,0 0,0 0,0 0,0l0 0c0,0 0,0 0,0 0,0 0,0 0,0 0,0 0,0 0,0 0,0 0,0 0,0 0,0 0,0 0,0 0,0 0,0 0,0l10 -6c0,0 0,0 0,0l0 10z"/>
   </g>
  </g>
  <g id="_860272770384">
  </g>
  <g id="_860272769936">
  </g>
  <g id="_860272767152">
  </g>
  <g id="_860272763280">
  </g>
  <g id="_860272759024">
  </g>
  <g id="_860272774192">
  </g>
  <g id="_860272773936">
  </g>
  <g id="_860272774608">
  </g>
  <g id="_860272775024">
  </g>
  <g id="_860272774960">
  </g>
  <g id="_860272774128">
  </g>
  <g id="_860272773232">
  </g>
  <g id="_860272773104">
  </g>
  <g id="_860272772144">
  </g>
  <g id="_860272771568">
  </g>
 </g>
</svg>
