<?xml version="1.0" encoding="utf-8"?>
<!-- Generator: Adobe Illustrator 21.0.0, SVG Export Plug-In . SVG Version: 6.00 Build 0)  -->
<svg version="1.1" id="Layer_1" xmlns="http://www.w3.org/2000/svg" xmlns:xlink="http://www.w3.org/1999/xlink" x="0px" y="0px"
	 viewBox="0 0 496 336" style="enable-background:new 0 0 496 336;" xml:space="preserve">
<style type="text/css">
	.st0{fill:#FFFFFF;}
	.st1{fill:#E9F3F4;}
	.st2{fill:#D9ECED;}
	.st3{fill:#D32027;}
	.st4{fill:#AA0015;}
</style>
<path class="st0" d="M496,289.6c0,27.2-21.6,46.4-48,46.4H48c-26.4,0-48-19.2-48-46.4V46.4C0,19.2,21.6,0,48,0h400
	c26.4,0,48,19.2,48,46.4V289.6z"/>
<path class="st1" d="M48,0h400c26.4,0,48,19.2,48,46.4v243.2c0,27.2-22.4,46.4-48.8,46.4"/>
<g>
	<path class="st2" d="M496,288.8c0,27.2-21.6,47.2-48,47.2H48c-26.4,0-48-20.8-48-48"/>
	<path class="st2" d="M48,0h400c26.4,0,48,19.2,48,46.4V136"/>
</g>
<polygon class="st3" points="496,136 280,136 280,0 216,0 216,136 0,136 0,200 216,200 216,336 280,336 280,200 496,200 "/>
<g>
	<rect x="216" y="288" class="st4" width="64" height="48"/>
	<polygon class="st4" points="280,0 216,0 216,136 210.4,136 285.6,200 496,200 496,136 280,136 	"/>
</g>
</svg>
