<svg xmlns="http://www.w3.org/2000/svg" width="54.891" height="73.187" viewBox="0 0 54.891 73.187"><path d="M52.669,73.187H2.221A2.189,2.189,0,0,1,0,71.032V15.739a2.123,2.123,0,0,1,.651-1.524l14-13.583A2.255,2.255,0,0,1,16.218,0H52.669A2.189,2.189,0,0,1,54.89,2.156V71.032a2.189,2.189,0,0,1-2.221,2.155Zm0,0" transform="translate(0 0)" fill="#e1f1fa"/><path d="M211.172,0H186.324V73.186h24.848a2.172,2.172,0,0,0,2.188-2.155V2.155A2.172,2.172,0,0,0,211.172,0Zm0,0" transform="translate(-158.47 0)" fill="#cdebfc"/><path d="M106.413,336.915H77.994a2.189,2.189,0,1,1,0-4.376h28.42a2.189,2.189,0,1,1,0,4.376Zm0,0" transform="translate(-64.758 -285.05)" fill="#1b3b6b"/><path d="M200.181,332.539H186.324v4.376h13.857a2.188,2.188,0,0,0,0-4.376Zm0,0" transform="translate(-158.706 -285.05)" fill="#001035"/><path d="M96.213,382.931H77.938a2.188,2.188,0,1,1,0-4.376H96.213a2.188,2.188,0,0,1,0,4.376Zm0,0" transform="translate(-64.472 -324.494)" fill="#1b3b6b"/><path d="M190.743,378.555h-4.419v4.376h4.419a2.188,2.188,0,0,0,0-4.376Zm0,0" transform="translate(-158.822 -324.495)" fill="#001035"/><path d="M83.509,160.147l-7.56,16.48a2.188,2.188,0,1,0,3.977,1.825l2.161-4.71h6.822l2.161,4.71a2.188,2.188,0,1,0,3.977-1.825l-7.56-16.48a2.188,2.188,0,0,0-3.977,0Zm.586,9.219,1.4-3.059,1.4,3.059Zm0,0" transform="translate(-64.497 -136.296)" fill="#06ccab"/><path d="M186.324,232.383v9.788a2.187,2.187,0,0,0,3.252-2.7Zm0,0" transform="translate(-158.851 -199.245)" fill="#1cadb5"/><path d="M15.976,0a2.187,2.187,0,0,0-1.547.641L.641,14.43A2.186,2.186,0,0,0,0,15.976v2.187H15.581a2.583,2.583,0,0,0,2.583-2.583V0Zm0,0" transform="translate(0 0)" fill="#a3d4ff"/><path d="M224.963,163.141h-1.543V161.6a2.188,2.188,0,0,0-4.376,0v1.543H217.5a2.188,2.188,0,0,0,0,4.376h1.543v1.544a2.188,2.188,0,0,0,4.376,0v-1.544h1.543a2.188,2.188,0,0,0,0-4.376Zm0,0" transform="translate(-183.465 -136.689)" fill="#ff193d"/></svg>