<?xml version="1.0" encoding="utf-8"?>
<!-- Generator: Adobe Illustrator 21.0.0, SVG Export Plug-In . SVG Version: 6.00 Build 0)  -->
<svg version="1.1" id="Layer_1" xmlns="http://www.w3.org/2000/svg" xmlns:xlink="http://www.w3.org/1999/xlink" x="0px" y="0px"
	 viewBox="0 0 496 336" style="enable-background:new 0 0 496 336;" xml:space="preserve">
<style type="text/css">
	.st0{fill:#F8D12E;}
	.st1{fill:#333333;}
	.st2{fill:#DB2727;}
	.st3{fill:#DBB30F;}
	.st4{fill:#202121;}
	.st5{fill:#C10E0E;}
	.st6{fill:#A00808;}
	.st7{fill:#D89F12;}
</style>
<path class="st0" d="M0,224v65.6C0,316.8,21.6,336,48,336h400c26.4,0,48-19.2,48-46.4V224H0z"/>
<path class="st1" d="M448,0H48C21.6,0,0,19.2,0,46.4V112h496V46.4C496,19.2,474.4,0,448,0z"/>
<rect y="112" class="st2" width="496" height="112"/>
<path class="st3" d="M446.4,336c26.4,0,49.6-19.2,49.6-46.4V224H315.2L446.4,336z"/>
<path class="st4" d="M448,0H48l132.8,112H496V46.4C496,19.2,474.4,0,448,0z"/>
<polygon class="st5" points="316,224 496,224 496,112 180,112 "/>
<path d="M448,0H48l370.4,112H496V46.4C496,19.2,474.4,0,448,0z"/>
<polygon class="st6" points="496,134.4 496,112 414.4,112 "/>
<path class="st7" d="M496,288.8c0,29.6-21.6,47.2-48,47.2H48c-26.4,0-48-20.8-48-48"/>
</svg>
