<?xml version="1.0" encoding="utf-8"?>
<!-- Generator: Adobe Illustrator 21.0.0, SVG Export Plug-In . SVG Version: 6.00 Build 0)  -->
<svg version="1.1" id="Layer_1" xmlns="http://www.w3.org/2000/svg" xmlns:xlink="http://www.w3.org/1999/xlink" x="0px" y="0px"
	 viewBox="0 0 1387.3 516.1" style="enable-background:new 0 0 1387.3 516.1;" xml:space="preserve">
<style type="text/css">
	.st0{opacity:0.623;fill:#EFF6FF;enable-background:new    ;}
	.st1{fill:#EFF6FF;}
</style>
<g transform="translate(10.529 -3147)">
	<g transform="translate(-10.529 3147)">
		<path class="st0" d="M0,516.1h1387.3V114.9c0,0-147.6,112.6-347.6,72.6S729.8,0,575.5,0c-151,0-277.4,127.7-373.2,162.5
			C81,206.5,0,135.9,0,135.9V516.1z"/>
		<path class="st1" d="M0,516.1h1387.3V125.5c0,0-175.5,128.3-375.6,88.3S729.8,54,575.5,54c-151,0-233.8,106.9-329.5,141.7
			c-121.3,44.1-246,15-246,15V516.1z"/>
	</g>
</g>
</svg>
