<svg xmlns="http://www.w3.org/2000/svg" width="86.981" height="62.923" viewBox="0 0 86.981 62.923"><path d="M82.157,70.923H4.824A4.821,4.821,0,0,1,0,66.1V12.82A4.821,4.821,0,0,1,4.824,8H82.157a4.821,4.821,0,0,1,4.824,4.82V66.1A4.821,4.821,0,0,1,82.157,70.923Z" transform="translate(0 -8)" fill="#e7eced"/><path d="M29.109,46.286,23.5,43.394a1.157,1.157,0,0,1-.624-1.028V40.632a9.5,9.5,0,0,0,5.34-6.728,3,3,0,0,0,2.108-2.86v-1.5a3.007,3.007,0,0,0-1.606-2.651c-.657-5.655-4.36-7.943-10.31-7.943-.282,0-.559.011-.83.033a8.878,8.878,0,0,1-5.752-1.367,7.485,7.485,0,0,1-1.7-1.513.3.3,0,0,0-.532.218c.06.526.149,1.14.28,1.81.492,2.5.2,2.132-.758,4.486a15.651,15.651,0,0,0-1.028,4.277A3.016,3.016,0,0,0,6.489,29.54v1.5A3,3,0,0,0,8.6,33.9a9.5,9.5,0,0,0,5.34,6.728v1.721a1.158,1.158,0,0,1-.639,1.037L7.547,46.249A4.939,4.939,0,0,0,5,50.579v1.992c0,1.7,6,2.529,13.405,2.529s13.405-.83,13.405-2.529V50.7A4.94,4.94,0,0,0,29.109,46.286Z" transform="translate(2.447 -4.093)" fill="#bf4d90"/><g transform="translate(42.297 18.064)"><path d="M29.489,22.979H44.384a1.489,1.489,0,1,0,0-2.979H29.489a1.489,1.489,0,0,0,0,2.979Z" transform="translate(-28 -20)" fill="#afb6bb"/><path d="M43.489,22.979h1.489a1.489,1.489,0,0,0,0-2.979H43.489a1.489,1.489,0,1,0,0,2.979Z" transform="translate(-21.147 -20)" fill="#afb6bb"/><path d="M30.979,37H29.489a1.489,1.489,0,0,0,0,2.979h1.489a1.489,1.489,0,0,0,0-2.979Z" transform="translate(-28 -11.679)" fill="#afb6bb"/><path d="M37.468,37H34.489a1.489,1.489,0,1,0,0,2.979h2.979a1.489,1.489,0,1,0,0-2.979Z" transform="translate(-25.553 -11.679)" fill="#afb6bb"/><path d="M41.979,37H40.49a1.489,1.489,0,1,0,0,2.979h1.489a1.489,1.489,0,0,0,0-2.979Z" transform="translate(-22.616 -11.679)" fill="#afb6bb"/><path d="M48.468,37H45.489a1.489,1.489,0,0,0,0,2.979h2.979a1.489,1.489,0,1,0,0-2.979Z" transform="translate(-20.168 -11.679)" fill="#afb6bb"/><path d="M50.432,37.426a1.49,1.49,0,1,0,2.115,0A1.556,1.556,0,0,0,50.432,37.426Z" transform="translate(-17.231 -11.673)" fill="#afb6bb"/><path d="M29.489,28.979H62.258a1.489,1.489,0,0,0,0-2.979H29.489a1.489,1.489,0,0,0,0,2.979Z" transform="translate(-28 -17.063)" fill="#afb6bb"/><path d="M62.258,32H29.489a1.489,1.489,0,0,0,0,2.979H62.258a1.489,1.489,0,0,0,0-2.979Z" transform="translate(-28 -14.126)" fill="#afb6bb"/></g></svg>