<svg height="412pt" viewBox="0 -9 412 411" width="412pt" xmlns="http://www.w3.org/2000/svg"><path d="m399.332031 361.921875h-346.664062c-11.410157-.011719-20.65625-9.257813-20.667969-20.667969v-120.664062h-20v140.664062c.011719 11.410156 9.257812 20.65625 20.667969 20.667969h346.664062c11.15625-.015625 20.289063-8.882813 20.636719-20.03125-.214844.003906-.421875.03125-.636719.03125zm0 0" fill="#d4e1f4"/><path d="m412 361.253906v-146.664062c0-1.125-.316406-2.222656-.914062-3.175782l-39.316407-62.976562-10.167969 6.347656 33.582032 53.800782h-99.183594c-16.191406.019531-29.3125 13.140624-29.332031 29.332031-.011719 9.570312-7.765625 17.324219-17.335938 17.335937h-86.664062c-9.570313-.011718-17.324219-7.765625-17.335938-17.335937-.019531-16.191407-13.140625-29.308594-29.332031-29.328125h-99.183594l33.621094-53.863282c4.054688-6.644531 10.257812-11.703124 17.585938-14.335937l-4.046876-11.300781c-9.890624 3.550781-18.269531 10.375-23.753906 19.339844l-39.3125 62.980468h.003906c-.597656.953125-.914062 2.054688-.914062 3.179688v146.664062c.0195312 18.035156 14.632812 32.648438 32.667969 32.667969h346.664062c18.035157-.019531 32.648438-14.632813 32.667969-32.667969zm-400 0v-140.664062h104c9.570312.007812 17.324219 7.765625 17.332031 17.332031.019531 16.191406 13.140625 29.316406 29.335938 29.332031h86.664062c16.195313-.015625 29.316407-13.140625 29.335938-29.332031.007812-9.566406 7.761719-17.324219 17.332031-17.332031h104v140.664062c-.011719 11.410156-9.257812 20.65625-20.667969 20.667969h-346.664062c-11.410157-.011719-20.65625-9.257813-20.667969-20.667969zm0 0" fill="#0635c9"/><path d="m272.667969 288.589844h-133.335938c-3.3125 0-6 2.683594-6 6v26.664062c0 3.316406 2.6875 6 6 6h133.335938c3.3125 0 6-2.683594 6-6v-26.664062c0-3.316406-2.6875-6-6-6zm-6 26.664062h-121.335938v-14.664062h121.335938zm0 0" fill="#0635c9"/><g fill="#1ae5be"><path d="m340.632812 52.957031h-92.75c-7.226562.015625-13.855468-4.007812-17.179687-10.425781l-13.085937-25.144531c-5.378907-10.390625-16.113282-16.90625-27.816407-16.886719h-58.433593c-17.316407.019531-31.347657 14.050781-31.367188 31.363281v8.636719h-8.632812c-17.316407.019531-31.347657 14.050781-31.367188 31.363281v137.726563h12v-137.726563c.011719-10.6875 8.675781-19.351562 19.367188-19.363281h58.433593c7.226563-.015625 13.855469 4.007812 17.179688 10.425781l13.085937 25.144531c5.382813 10.394532 16.117188 16.910157 27.824219 16.886719h92.75c10.6875.015625 19.347656 8.675781 19.359375 19.363281v84.269532h12v-84.269532c-.019531-17.3125-14.050781-31.34375-31.367188-31.363281h-92.75c-7.226562.015625-13.855468-4.007812-17.179687-10.425781l-13.085937-25.144531c-5.378907-10.390625-16.113282-16.90625-27.816407-16.886719h-37.800781v-8.636719c.011719-10.6875 8.675781-19.351562 19.367188-19.363281h58.433593c7.226563-.015625 13.855469 4.007812 17.179688 10.425781l13.085937 25.144531c5.382813 10.394532 16.117188 16.910157 27.824219 16.886719h92.75c10.6875.015625 19.347656 8.675781 19.359375 19.363281v124.851563h12v-124.851563c-.019531-17.3125-14.050781-31.34375-31.367188-31.363281zm0 0"/><path d="m258.785156 145.609375h-12.785156c-3.3125 0-6 2.6875-6 6 0 3.316406 2.6875 6 6 6h12.785156c3.3125 0 6-2.683594 6-6 0-3.3125-2.6875-6-6-6zm0 0"/><path d="m133.214844 157.609375h83.367187c3.3125 0 6-2.683594 6-6 0-3.3125-2.6875-6-6-6h-83.367187c-3.3125 0-6 2.6875-6 6 0 3.316406 2.6875 6 6 6zm0 0"/><path d="m258.785156 175.609375h-86.75c-3.3125 0-6 2.6875-6 6 0 3.316406 2.6875 6 6 6h86.75c3.3125 0 6-2.683594 6-6 0-3.3125-2.6875-6-6-6zm0 0"/><path d="m133.214844 187.609375h13.367187c3.3125 0 6-2.683594 6-6 0-3.3125-2.6875-6-6-6h-13.367187c-3.3125 0-6 2.6875-6 6 0 3.316406 2.6875 6 6 6zm0 0"/></g></svg>