<?xml version="1.0" encoding="utf-8"?>
<!-- Generator: Adobe Illustrator 21.0.0, SVG Export Plug-In . SVG Version: 6.00 Build 0)  -->
<svg version="1.1" id="Layer_1" xmlns="http://www.w3.org/2000/svg" xmlns:xlink="http://www.w3.org/1999/xlink" x="0px" y="0px"
	 viewBox="0 0 496 336" style="enable-background:new 0 0 496 336;" xml:space="preserve">
<style type="text/css">
	.st0{fill:#DA0000;}
	.st1{fill:#239F40;}
	.st2{fill:#FFFFFF;}
	.st3{fill:#C10000;}
	.st4{fill:#138E2A;}
	.st5{fill:#F7F4E2;}
	.st6{fill:#097218;}
	.st7{fill:#F2E9C2;}
	.st8{fill:#A00000;}
	.st9{opacity:0.5;}
</style>
<path class="st0" d="M0.8,224v63.9c0,26.8,21.6,48.1,48,48.1h400c26.4,0,48-21.3,48-48.1V224H0.8z"/>
<path class="st1" d="M448.8,0h-400c-26.4,0-48,21.3-48,48.1V112h496V48.1C496.8,21.3,475.2,0,448.8,0z"/>
<rect x="0.8" y="110.4" class="st2" width="496" height="114.4"/>
<path class="st3" d="M448.8,336c26.4,0,48-21.3,48-48.1V224H316L448.8,336z"/>
<path class="st4" d="M448.8,0h-400l132.8,112h315.2V48.1C496.8,21.3,475.2,0,448.8,0z"/>
<polygon class="st5" points="316.8,225.6 496.8,225.6 496.8,110.4 180.8,110.4 "/>
<path class="st6" d="M448.8,0h-400l370.4,112h77.6V48.1C496.8,21.3,475.2,0,448.8,0z"/>
<polygon class="st7" points="496.8,134.9 496.8,110.4 415.2,110.4 "/>
<g>
	<path class="st8" d="M496.8,287.9c0,26.8-21.6,48.1-48,48.1h-400c-26.4,0-48-21.3-48-48.1"/>
	<path class="st8" d="M269.6,130.9c0,0,37.6,29.2,9.6,70.2C305.6,185.4,308,142.8,269.6,130.9z"/>
	<path class="st8" d="M248.8,126.2c5.6,6.3,16,0,12.8-7.1c-6.4,11-12.8,2.4-12.8,2.4s-6.4,8.7-12.8-2.4
		C232.8,126.2,243.2,133.3,248.8,126.2z"/>
</g>
<path class="st0" d="M281.6,167.2c-1.6-26.8-16-35.5-16-35.5s25.6,37.1-12,68.6l1.6-38.6v-28.4c-2.4-0.8-6.4-4.7-6.4-4.7
	s-4,4.7-6.4,4.7v28.4l1.6,38.6c-38.4-31.5-12-68.6-12-68.6s-14.4,7.9-16,35.5c-0.8,26.8,24,40.2,24,40.2c-2.4,0.8-8,3.2-19.2,3.2
	c13.6,4.7,23.2,1.6,23.2,1.6l4,5.5l4-5.5c0,0,10.4,3.2,23.2-1.6c-11.2,0-16.8-1.6-19.2-3.2C257.6,206.6,281.6,194,281.6,167.2z"/>
<path id="SVGCleanerId_0" class="st0" d="M228,130.9c-38.4,11.8-36,55.2-9.6,70.2C190.4,159.3,228,130.9,228,130.9z"/>
<g>
	<path class="st8" d="M265.6,131.7c0,0,17.6,25.2,2.4,52.1l7.2,6.3c4-6.3,6.4-13.4,6.4-22.9C280,139.6,265.6,131.7,265.6,131.7z"/>
	<path class="st8" d="M221.6,145.1l4,3.2c2.4-10.3,7.2-16.6,7.2-16.6S226.4,134.9,221.6,145.1z"/>
	<path class="st8" d="M255.2,161.7v-28.4c-2.4-0.8-6.4-4.7-6.4-4.7s-4,4.7-6.4,4.7v28.4v1.6l12,9.5L255.2,161.7z"/>
</g>
<g>
	<path id="SVGCleanerId_0_1_" class="st0" d="M228,130.9c-38.4,11.8-36,55.2-9.6,70.2C190.4,159.3,228,130.9,228,130.9z"/>
</g>
<g class="st9">
	<rect x="224.8" y="90.7" class="st2" width="32.8" height="3.2"/>
	<polygon class="st2" points="269.6,100.2 268,100.2 268,90.7 264.8,90.7 264.8,100.2 262.4,100.2 262.4,90.7 259.2,90.7 
		259.2,95.4 249.6,95.4 249.6,103.3 257.6,103.3 257.6,100.2 252.8,100.2 252.8,98.6 259.2,98.6 259.2,103.3 272.8,103.3 
		272.8,90.7 269.6,90.7 	"/>
	<rect x="229.6" y="100.2" class="st2" width="3.2" height="3.2"/>
	<polygon class="st2" points="228,98.6 235.2,98.6 235.2,103.3 248,103.3 248,95.4 240,95.4 240,98.6 244.8,98.6 244.8,100.2 
		238.4,100.2 238.4,95.4 224.8,95.4 224.8,103.3 228,103.3 	"/>
	<rect x="249.6" y="105.7" class="st2" width="23.2" height="3.2"/>
	<rect x="224.8" y="105.7" class="st2" width="23.2" height="3.2"/>
	<rect x="224.8" y="232.7" class="st2" width="32.8" height="3.2"/>
	<polygon class="st2" points="240,240.6 244.8,240.6 244.8,242.1 238.4,242.1 238.4,237.4 224.8,237.4 224.8,245.3 228,245.3 
		228,240.6 235.2,240.6 235.2,245.3 248,245.3 248,237.4 240,237.4 	"/>
	<polygon class="st2" points="269.6,242.1 268,242.1 268,232.7 264.8,232.7 264.8,242.1 262.4,242.1 262.4,232.7 259.2,232.7 
		259.2,237.4 249.6,237.4 249.6,245.3 257.6,245.3 257.6,242.1 252.8,242.1 252.8,240.6 259.2,240.6 259.2,245.3 272.8,245.3 
		272.8,232.7 269.6,232.7 	"/>
	<rect x="229.6" y="242.1" class="st2" width="3.2" height="3.2"/>
	<rect x="249.6" y="227.2" class="st2" width="23.2" height="3.2"/>
	<rect x="224.8" y="227.2" class="st2" width="23.2" height="3.2"/>
	<rect x="274.4" y="90.7" class="st2" width="32.8" height="3.2"/>
	<polygon class="st2" points="318.4,100.2 316.8,100.2 316.8,90.7 313.6,90.7 313.6,100.2 312,100.2 312,90.7 308.8,90.7 
		308.8,95.4 299.2,95.4 299.2,103.3 307.2,103.3 307.2,100.2 302.4,100.2 302.4,98.6 308.8,98.6 308.8,103.3 321.6,103.3 
		321.6,90.7 318.4,90.7 	"/>
	<rect x="279.2" y="100.2" class="st2" width="3.2" height="3.2"/>
	<polygon class="st2" points="277.6,98.6 284,98.6 284,103.3 297.6,103.3 297.6,95.4 288.8,95.4 288.8,98.6 294.4,98.6 294.4,100.2 
		287.2,100.2 287.2,95.4 274.4,95.4 274.4,103.3 277.6,103.3 	"/>
	<rect x="274.4" y="105.7" class="st2" width="23.2" height="3.2"/>
	<rect x="299.2" y="105.7" class="st2" width="23.2" height="3.2"/>
	<polygon class="st2" points="288.8,240.6 294.4,240.6 294.4,242.1 287.2,242.1 287.2,237.4 274.4,237.4 274.4,245.3 277.6,245.3 
		277.6,240.6 284,240.6 284,245.3 297.6,245.3 297.6,237.4 288.8,237.4 	"/>
	<polygon class="st2" points="318.4,242.1 316.8,242.1 316.8,232.7 313.6,232.7 313.6,242.1 312,242.1 312,232.7 308.8,232.7 
		308.8,237.4 299.2,237.4 299.2,245.3 307.2,245.3 307.2,242.1 302.4,242.1 302.4,240.6 308.8,240.6 308.8,245.3 321.6,245.3 
		321.6,232.7 318.4,232.7 	"/>
	<rect x="279.2" y="242.1" class="st2" width="3.2" height="3.2"/>
	<rect x="274.4" y="232.7" class="st2" width="32.8" height="3.2"/>
	<rect x="299.2" y="227.2" class="st2" width="23.2" height="3.2"/>
	<rect x="274.4" y="227.2" class="st2" width="23.2" height="3.2"/>
	<polygon class="st2" points="129.6,98.6 136,98.6 136,103.3 148.8,103.3 148.8,95.4 140.8,95.4 140.8,98.6 146.4,98.6 146.4,100.2 
		139.2,100.2 139.2,95.4 126.4,95.4 126.4,103.3 129.6,103.3 	"/>
	<polygon class="st2" points="170.4,100.2 168.8,100.2 168.8,90.7 165.6,90.7 165.6,100.2 164,100.2 164,90.7 160.8,90.7 
		160.8,95.4 151.2,95.4 151.2,103.3 159.2,103.3 159.2,100.2 154.4,100.2 154.4,98.6 160.8,98.6 160.8,103.3 173.6,103.3 
		173.6,90.7 170.4,90.7 	"/>
	<rect x="126.4" y="90.7" class="st2" width="32.8" height="3.2"/>
	<rect x="131.2" y="100.2" class="st2" width="3.2" height="3.2"/>
	<rect x="126.4" y="105.7" class="st2" width="23.2" height="3.2"/>
	<rect x="151.2" y="105.7" class="st2" width="23.2" height="3.2"/>
	<rect x="131.2" y="242.1" class="st2" width="3.2" height="3.2"/>
	<polygon class="st2" points="170.4,242.1 168.8,242.1 168.8,232.7 165.6,232.7 165.6,242.1 164,242.1 164,232.7 160.8,232.7 
		160.8,237.4 151.2,237.4 151.2,245.3 159.2,245.3 159.2,242.1 154.4,242.1 154.4,240.6 160.8,240.6 160.8,245.3 173.6,245.3 
		173.6,232.7 170.4,232.7 	"/>
	<rect x="126.4" y="232.7" class="st2" width="32.8" height="3.2"/>
	<polygon class="st2" points="140.8,240.6 146.4,240.6 146.4,242.1 139.2,242.1 139.2,237.4 126.4,237.4 126.4,245.3 129.6,245.3 
		129.6,240.6 136,240.6 136,245.3 148.8,245.3 148.8,237.4 140.8,237.4 	"/>
	<rect x="126.4" y="227.2" class="st2" width="23.2" height="3.2"/>
	<rect x="151.2" y="227.2" class="st2" width="23.2" height="3.2"/>
	<rect x="176" y="90.7" class="st2" width="32.8" height="3.2"/>
	<rect x="180.8" y="100.2" class="st2" width="3.2" height="3.2"/>
	<polygon class="st2" points="220,100.2 218.4,100.2 218.4,90.7 215.2,90.7 215.2,100.2 213.6,100.2 213.6,90.7 210.4,90.7 
		210.4,95.4 200,95.4 200,103.3 208.8,103.3 208.8,100.2 203.2,100.2 203.2,98.6 210.4,98.6 210.4,103.3 223.2,103.3 223.2,90.7 
		220,90.7 	"/>
	<polygon class="st2" points="179.2,98.6 185.6,98.6 185.6,103.3 198.4,103.3 198.4,95.4 190.4,95.4 190.4,98.6 195.2,98.6 
		195.2,100.2 188.8,100.2 188.8,95.4 176,95.4 176,103.3 179.2,103.3 	"/>
	<rect x="200" y="105.7" class="st2" width="23.2" height="3.2"/>
	<rect x="176" y="105.7" class="st2" width="23.2" height="3.2"/>
	<rect x="176" y="232.7" class="st2" width="32.8" height="3.2"/>
	<polygon class="st2" points="220,242.1 218.4,242.1 218.4,232.7 215.2,232.7 215.2,242.1 213.6,242.1 213.6,232.7 210.4,232.7 
		210.4,237.4 200,237.4 200,245.3 208.8,245.3 208.8,242.1 203.2,242.1 203.2,240.6 210.4,240.6 210.4,245.3 223.2,245.3 
		223.2,232.7 220,232.7 	"/>
	<polygon class="st2" points="190.4,240.6 195.2,240.6 195.2,242.1 188.8,242.1 188.8,237.4 176,237.4 176,245.3 179.2,245.3 
		179.2,240.6 185.6,240.6 185.6,245.3 198.4,245.3 198.4,237.4 190.4,237.4 	"/>
	<rect x="180.8" y="242.1" class="st2" width="3.2" height="3.2"/>
	<rect x="200" y="227.2" class="st2" width="23.2" height="3.2"/>
	<rect x="176" y="227.2" class="st2" width="23.2" height="3.2"/>
	<polygon class="st2" points="467.2,100.2 464.8,100.2 464.8,90.7 461.6,90.7 461.6,100.2 460,100.2 460,90.7 456.8,90.7 
		456.8,95.4 447.2,95.4 447.2,103.3 455.2,103.3 455.2,100.2 450.4,100.2 450.4,98.6 456.8,98.6 456.8,103.3 470.4,103.3 
		470.4,90.7 467.2,90.7 	"/>
	<polygon class="st2" points="425.6,98.6 432,98.6 432,103.3 445.6,103.3 445.6,95.4 437.6,95.4 437.6,98.6 442.4,98.6 442.4,100.2 
		435.2,100.2 435.2,95.4 422.4,95.4 422.4,103.3 425.6,103.3 	"/>
	<rect x="422.4" y="90.7" class="st2" width="32.8" height="3.2"/>
	<rect x="427.2" y="100.2" class="st2" width="3.2" height="3.2"/>
	<rect x="447.2" y="105.7" class="st2" width="23.2" height="3.2"/>
	<rect x="422.4" y="105.7" class="st2" width="23.2" height="3.2"/>
	<rect x="427.2" y="242.1" class="st2" width="3.2" height="3.2"/>
	<polygon class="st2" points="467.2,242.1 464.8,242.1 464.8,232.7 461.6,232.7 461.6,242.1 460,242.1 460,232.7 456.8,232.7 
		456.8,237.4 447.2,237.4 447.2,245.3 455.2,245.3 455.2,242.1 450.4,242.1 450.4,240.6 456.8,240.6 456.8,245.3 470.4,245.3 
		470.4,232.7 467.2,232.7 	"/>
	<rect x="422.4" y="232.7" class="st2" width="32.8" height="3.2"/>
	<polygon class="st2" points="437.6,240.6 442.4,240.6 442.4,242.1 435.2,242.1 435.2,237.4 422.4,237.4 422.4,245.3 425.6,245.3 
		425.6,240.6 432,240.6 432,245.3 445.6,245.3 445.6,237.4 437.6,237.4 	"/>
	<rect x="422.4" y="227.2" class="st2" width="23.2" height="3.2"/>
	<rect x="447.2" y="227.2" class="st2" width="23.2" height="3.2"/>
	<polygon class="st2" points="475.2,98.6 481.6,98.6 481.6,103.3 494.4,103.3 494.4,95.4 486.4,95.4 486.4,98.6 491.2,98.6 
		491.2,100.2 484.8,100.2 484.8,95.4 472,95.4 472,103.3 475.2,103.3 	"/>
	<rect x="472" y="90.7" class="st2" width="17.6" height="3.2"/>
	<rect x="476.8" y="100.2" class="st2" width="3.2" height="3.2"/>
	<rect x="472" y="105.7" class="st2" width="23.2" height="3.2"/>
	<polygon class="st2" points="486.4,240.6 491.2,240.6 491.2,242.1 484.8,242.1 484.8,237.4 472,237.4 472,245.3 475.2,245.3 
		475.2,240.6 481.6,240.6 481.6,245.3 494.4,245.3 494.4,237.4 486.4,237.4 	"/>
	<rect x="476.8" y="242.1" class="st2" width="3.2" height="3.2"/>
	<rect x="472" y="232.7" class="st2" width="17.6" height="3.2"/>
	<rect x="472" y="227.2" class="st2" width="23.2" height="3.2"/>
	<polygon class="st2" points="327.2,98.6 333.6,98.6 333.6,103.3 346.4,103.3 346.4,95.4 338.4,95.4 338.4,98.6 343.2,98.6 
		343.2,100.2 336.8,100.2 336.8,95.4 324,95.4 324,103.3 327.2,103.3 	"/>
	<polygon class="st2" points="368,100.2 366.4,100.2 366.4,90.7 363.2,90.7 363.2,100.2 361.6,100.2 361.6,90.7 358.4,90.7 
		358.4,95.4 348.8,95.4 348.8,103.3 356.8,103.3 356.8,100.2 351.2,100.2 351.2,98.6 358.4,98.6 358.4,103.3 371.2,103.3 
		371.2,90.7 368,90.7 	"/>
	<rect x="328.8" y="100.2" class="st2" width="3.2" height="3.2"/>
	<rect x="324" y="90.7" class="st2" width="32.8" height="3.2"/>
	<rect x="348.8" y="105.7" class="st2" width="23.2" height="3.2"/>
	<rect x="324" y="105.7" class="st2" width="23.2" height="3.2"/>
	<rect x="324" y="232.7" class="st2" width="32.8" height="3.2"/>
	<polygon class="st2" points="338.4,240.6 343.2,240.6 343.2,242.1 336.8,242.1 336.8,237.4 324,237.4 324,245.3 327.2,245.3 
		327.2,240.6 333.6,240.6 333.6,245.3 346.4,245.3 346.4,237.4 338.4,237.4 	"/>
	<rect x="328.8" y="242.1" class="st2" width="3.2" height="3.2"/>
	<polygon class="st2" points="368,242.1 366.4,242.1 366.4,232.7 363.2,232.7 363.2,242.1 361.6,242.1 361.6,232.7 358.4,232.7 
		358.4,237.4 348.8,237.4 348.8,245.3 356.8,245.3 356.8,242.1 351.2,242.1 351.2,240.6 358.4,240.6 358.4,245.3 371.2,245.3 
		371.2,232.7 368,232.7 	"/>
	<rect x="324" y="227.2" class="st2" width="23.2" height="3.2"/>
	<rect x="348.8" y="227.2" class="st2" width="23.2" height="3.2"/>
	<rect x="372.8" y="90.7" class="st2" width="32.8" height="3.2"/>
	<polygon class="st2" points="417.6,100.2 416,100.2 416,90.7 412.8,90.7 412.8,100.2 411.2,100.2 411.2,90.7 408,90.7 408,95.4 
		397.6,95.4 397.6,103.3 405.6,103.3 405.6,100.2 400.8,100.2 400.8,98.6 408,98.6 408,103.3 420.8,103.3 420.8,90.7 417.6,90.7 	
		"/>
	<rect x="378.4" y="100.2" class="st2" width="3.2" height="3.2"/>
	<polygon class="st2" points="376,98.6 383.2,98.6 383.2,103.3 396,103.3 396,95.4 388,95.4 388,98.6 392.8,98.6 392.8,100.2 
		386.4,100.2 386.4,95.4 372.8,95.4 372.8,103.3 376,103.3 	"/>
	<rect x="397.6" y="105.7" class="st2" width="23.2" height="3.2"/>
	<rect x="372.8" y="105.7" class="st2" width="23.2" height="3.2"/>
	<polygon class="st2" points="388,240.6 392.8,240.6 392.8,242.1 386.4,242.1 386.4,237.4 372.8,237.4 372.8,245.3 376,245.3 
		376,240.6 383.2,240.6 383.2,245.3 396,245.3 396,237.4 388,237.4 	"/>
	<rect x="372.8" y="232.7" class="st2" width="32.8" height="3.2"/>
	<polygon class="st2" points="417.6,242.1 416,242.1 416,232.7 412.8,232.7 412.8,242.1 411.2,242.1 411.2,232.7 408,232.7 
		408,237.4 397.6,237.4 397.6,245.3 405.6,245.3 405.6,242.1 400.8,242.1 400.8,240.6 408,240.6 408,245.3 420.8,245.3 420.8,232.7 
		417.6,232.7 	"/>
	<rect x="378.4" y="242.1" class="st2" width="3.2" height="3.2"/>
	<rect x="372.8" y="227.2" class="st2" width="23.2" height="3.2"/>
	<rect x="397.6" y="227.2" class="st2" width="23.2" height="3.2"/>
	<rect x="76.8" y="90.7" class="st2" width="32.8" height="3.2"/>
	<rect x="81.6" y="100.2" class="st2" width="3.2" height="3.2"/>
	<polygon class="st2" points="80,98.6 86.4,98.6 86.4,103.3 100,103.3 100,95.4 92,95.4 92,98.6 96.8,98.6 96.8,100.2 89.6,100.2 
		89.6,95.4 76.8,95.4 76.8,103.3 80,103.3 	"/>
	<polygon class="st2" points="121.6,100.2 119.2,100.2 119.2,90.7 116.8,90.7 116.8,100.2 114.4,100.2 114.4,90.7 111.2,90.7 
		111.2,95.4 101.6,95.4 101.6,103.3 109.6,103.3 109.6,100.2 104.8,100.2 104.8,98.6 111.2,98.6 111.2,103.3 124.8,103.3 
		124.8,90.7 121.6,90.7 	"/>
	<rect x="76.8" y="105.7" class="st2" width="23.2" height="3.2"/>
	<rect x="101.6" y="105.7" class="st2" width="23.2" height="3.2"/>
	<rect x="76.8" y="232.7" class="st2" width="32.8" height="3.2"/>
	<polygon class="st2" points="92,240.6 96.8,240.6 96.8,242.1 89.6,242.1 89.6,237.4 76.8,237.4 76.8,245.3 80,245.3 80,240.6 
		86.4,240.6 86.4,245.3 100,245.3 100,237.4 92,237.4 	"/>
	<rect x="81.6" y="242.1" class="st2" width="3.2" height="3.2"/>
	<polygon class="st2" points="121.6,242.1 119.2,242.1 119.2,232.7 116.8,232.7 116.8,242.1 114.4,242.1 114.4,232.7 111.2,232.7 
		111.2,237.4 101.6,237.4 101.6,245.3 109.6,245.3 109.6,242.1 104.8,242.1 104.8,240.6 111.2,240.6 111.2,245.3 124.8,245.3 
		124.8,232.7 121.6,232.7 	"/>
	<rect x="76.8" y="227.2" class="st2" width="23.2" height="3.2"/>
	<rect x="101.6" y="227.2" class="st2" width="23.2" height="3.2"/>
	<polygon class="st2" points="22.4,100.2 20.8,100.2 20.8,90.7 17.6,90.7 17.6,100.2 16,100.2 16,90.7 12.8,90.7 12.8,95.4 
		3.2,95.4 3.2,103.3 11.2,103.3 11.2,100.2 6.4,100.2 6.4,98.6 12.8,98.6 12.8,103.3 25.6,103.3 25.6,90.7 22.4,90.7 	"/>
	<rect x="3.2" y="105.7" class="st2" width="23.2" height="3.2"/>
	<polygon class="st2" points="22.4,242.1 20.8,242.1 20.8,232.7 17.6,232.7 17.6,242.1 16,242.1 16,232.7 12.8,232.7 12.8,237.4 
		3.2,237.4 3.2,245.3 11.2,245.3 11.2,242.1 6.4,242.1 6.4,240.6 12.8,240.6 12.8,245.3 25.6,245.3 25.6,232.7 22.4,232.7 	"/>
	<rect x="3.2" y="227.2" class="st2" width="23.2" height="3.2"/>
	<rect x="27.2" y="90.7" class="st2" width="32.8" height="3.2"/>
	<polygon class="st2" points="30.4,98.6 37.6,98.6 37.6,103.3 50.4,103.3 50.4,95.4 42.4,95.4 42.4,98.6 47.2,98.6 47.2,100.2 
		40.8,100.2 40.8,95.4 27.2,95.4 27.2,103.3 30.4,103.3 	"/>
	<rect x="32.8" y="100.2" class="st2" width="3.2" height="3.2"/>
	<polygon class="st2" points="72,100.2 70.4,100.2 70.4,90.7 67.2,90.7 67.2,100.2 65.6,100.2 65.6,90.7 62.4,90.7 62.4,95.4 
		52,95.4 52,103.3 60,103.3 60,100.2 55.2,100.2 55.2,98.6 62.4,98.6 62.4,103.3 75.2,103.3 75.2,90.7 72,90.7 	"/>
	<rect x="52" y="105.7" class="st2" width="23.2" height="3.2"/>
	<rect x="27.2" y="105.7" class="st2" width="23.2" height="3.2"/>
	<rect x="32.8" y="242.1" class="st2" width="3.2" height="3.2"/>
	<rect x="27.2" y="232.7" class="st2" width="32.8" height="3.2"/>
	<polygon class="st2" points="42.4,240.6 47.2,240.6 47.2,242.1 40.8,242.1 40.8,237.4 27.2,237.4 27.2,245.3 30.4,245.3 
		30.4,240.6 37.6,240.6 37.6,245.3 50.4,245.3 50.4,237.4 42.4,237.4 	"/>
	<polygon class="st2" points="72,242.1 70.4,242.1 70.4,232.7 67.2,232.7 67.2,242.1 65.6,242.1 65.6,232.7 62.4,232.7 62.4,237.4 
		52,237.4 52,245.3 60,245.3 60,242.1 55.2,242.1 55.2,240.6 62.4,240.6 62.4,245.3 75.2,245.3 75.2,232.7 72,232.7 	"/>
	<rect x="52" y="227.2" class="st2" width="23.2" height="3.2"/>
	<rect x="27.2" y="227.2" class="st2" width="23.2" height="3.2"/>
</g>
</svg>
