<svg id="Layer_1" data-name="Layer 1" xmlns="http://www.w3.org/2000/svg" viewBox="0 0 559.37 559.38"><defs><style>.cls-1{fill:#a9a9a9;}.cls-2{fill:black;}</style></defs><title>mali-g</title><g id="Group_1430" data-name="Group 1430"><path id="Path_6819" data-name="Path 6819" class="cls-1" d="M279.69,10.81V337.54h45.83V116.26l25.57-19.17,15.18-27.16h89.47L473.31,90.7l30.36,25.56V155.4l8,275.2-24.77,16v32.75l-36,21.55V548H548.4L546.8,10.81" transform="translate(0 0)"/><path id="Path_6820" data-name="Path 6820" class="cls-1" d="M273.46,53.5,169.6,79.86l72.69,256.41h45L238.6,168.89l25.53-18L267,121.61l14.19-8.27" transform="translate(0 0)"/><g id="money"><g id="Group_1420" data-name="Group 1420"><g id="Group_1419" data-name="Group 1419"><path id="Path_6803" data-name="Path 6803" class="cls-2" d="M92.94,497a10.91,10.91,0,1,0,3.2,7.72A10.91,10.91,0,0,0,92.94,497Z" transform="translate(0 0)"/></g></g><g id="Group_1422" data-name="Group 1422"><g id="Group_1421" data-name="Group 1421"><path id="Path_6804" data-name="Path 6804" class="cls-2" d="M513,199.87a10.89,10.89,0,1,0,3.21,7.72A10.9,10.9,0,0,0,513,199.87Z" transform="translate(0 0)"/></g></g><g id="Group_1424" data-name="Group 1424"><g id="Group_1423" data-name="Group 1423"><path id="Path_6805" data-name="Path 6805" class="cls-2" d="M556.17,3.2A10.93,10.93,0,0,0,548.44,0H279.68a10.94,10.94,0,0,0-10.92,10.93V42.18L165.19,69.93a10.91,10.91,0,0,0-7.72,13.37h0l53.67,200.31-46.43,46.43a32.81,32.81,0,0,0-27.06-14.3H32.77A32.81,32.81,0,0,0,0,348.53V526.61a32.81,32.81,0,0,0,32.77,32.77H137.66a32.82,32.82,0,0,0,31.81-24.89l13,11.33a55,55,0,0,0,36.18,13.56h329.8a10.92,10.92,0,0,0,10.92-10.92V10.93A11,11,0,0,0,556.17,3.2ZM148.58,526.61a10.94,10.94,0,0,1-10.93,10.92H32.77a10.93,10.93,0,0,1-10.92-10.92V348.53A10.94,10.94,0,0,1,32.77,337.6H74.29V463.46a10.93,10.93,0,0,0,21.85,0V337.6h41.52a10.93,10.93,0,0,1,10.92,10.92V526.6ZM181.4,88.21,268.76,64.8v40.48l-7.33,2a10.93,10.93,0,0,0-7.72,13.38,29.45,29.45,0,0,1-20.8,36A10.94,10.94,0,0,0,225.18,170h0l42.59,157.71H245.85l-11.3-44.21a11.16,11.16,0,0,0-1.83-3.84Zm87.36,67.18v92.19L248.83,173.8A51.17,51.17,0,0,0,268.76,155.39Zm157,382.14H218.64a33.23,33.23,0,0,1-21.83-8.18l-26.38-23V355.24l47.7-47.7,8.65,33.84a10.93,10.93,0,0,0,10.59,8.22h214.8a15.3,15.3,0,0,1,0,30.59H342.1a10.93,10.93,0,1,0-.66,21.85H486.36a15.3,15.3,0,0,1,0,30.59H342.1a10.93,10.93,0,1,0-.66,21.85H463a15.3,15.3,0,0,1,0,30.59H342.1a10.93,10.93,0,1,0-.66,21.85h84.28a15.3,15.3,0,0,1,0,30.59h0Zm111.8,0h-78a37,37,0,0,0,0-30.59H463a37.11,37.11,0,0,0,33.2-53.77,37.1,37.1,0,0,0,20-57.95V256.76a10.93,10.93,0,1,0-21.85-.66q0,.33,0,.66V381.08a37.13,37.13,0,0,0-8-.87H486a37.13,37.13,0,0,0-33.84-52.44H434.6a52.28,52.28,0,1,0-41.08,0H333.8V120A51.44,51.44,0,0,0,373,80.86h82.18A51.46,51.46,0,0,0,494.32,120v34a10.93,10.93,0,1,0,21.85.66q0-.33,0-.66V110.28a10.92,10.92,0,0,0-10.91-10.93h0a29.46,29.46,0,0,1-29.42-29.42A10.92,10.92,0,0,0,464.92,59H363.21a10.92,10.92,0,0,0-10.92,10.92h0a29.45,29.45,0,0,1-29.41,29.42A10.93,10.93,0,0,0,312,110.28V327.77H290.61V21.86H537.52Zm-123.5-227.4a30.44,30.44,0,1,1,30.43-30.45h0A30.47,30.47,0,0,1,414.06,310.13Z" transform="translate(0 0)"/></g></g></g></g></svg>