<?xml version="1.0" encoding="iso-8859-1"?>
<!-- Generator: Adobe Illustrator 19.0.0, SVG Export Plug-In . SVG Version: 6.00 Build 0)  -->
<svg version="1.1" id="Layer_1" xmlns="http://www.w3.org/2000/svg" xmlns:xlink="http://www.w3.org/1999/xlink" x="0px" y="0px"
	 viewBox="0 0 512 512" style="enable-background:new 0 0 512 512;" xml:space="preserve">
<path style="fill:#FFFFFF;" d="M416,48H48c-13.232,0-24,10.768-24,24v400c0,13.232,10.768,24,24,24h368c13.232,0,24-10.768,24-24V72
	C440,58.768,429.232,48,416,48z M424,440c0,4.424-3.576,8-8,8c-13.232,0-24,10.768-24,24c0,4.408-3.56,7.984-7.976,8
	c-108.624,0.36-178.744,0.584-224.136,0.584c-82.616,0-83.368-0.76-85.528-2.912C72.848,476.168,72,474.128,72,472
	c0-13.232-10.768-24-24-24c-2.128,0-4.168-0.84-5.664-2.352c-1.504-1.504-2.344-3.544-2.336-5.672
	c0.264-89.232,0.792-321.584,0.104-334.744c-0.144-0.856-0.136-1.752,0.024-2.648C40.816,98.776,44.128,96,48,96
	c13.512,0,24-12.896,24-24c0-4.424,3.576-8,8-8h304c4.424,0,8,3.576,8,8c0,11.104,10.48,24,24,24c4.424,0,8,3.576,8,8V440z"/>
<path style="fill:#EEC97B;" d="M376.88,80H87.12c-3.36,15.168-15.928,27.752-31.104,31.12c0.352,8.472,0.376,22.36,0.408,45.544
	c0.048,31.52,0.016,73.512-0.048,115.504c-0.104,69.312-0.288,138.584-0.352,160.64c15.72,3.216,28.112,15.672,31.216,31.432
	c32.968,0.416,183.2,0.128,289.552-0.208c3.176-15.664,15.544-28.032,31.2-31.216V111.12C392.824,107.76,380.24,95.168,376.88,80z
	 M296,208h56v16h-56V208z M216,320v-16h136v16H216z M352,376v16h-88v-16H352z M160,288v-16h192v16H160z M256,256v-16h96v16H256z
	 M208,224v-16h72v16H208z M232,96c26.472,0,48,21.528,48,48s-21.528,48-48,48s-48-21.528-48-48S205.528,96,232,96z M112,208h80v16
	h-80V208z M112,240h128v16H112V240z M112,272h32v16h-32V272z M112,304h88v16h-88V304z M112,376h88v16h-88V376z M348,448h-4v-16h4
	c2.2,0,4-1.8,4-4s-1.8-4-4-4h-36.408c0.264,1.296,0.408,2.632,0.408,4c0,11.032-8.968,20-20,20h-4v-16h4c2.2,0,4-1.8,4-4s-1.8-4-4-4
	h-4H176h-4c-2.2,0-4,1.8-4,4s1.8,4,4,4h4v16h-4c-11.032,0-20-8.968-20-20c0-1.368,0.144-2.704,0.4-4H116c-2.2,0-4,1.8-4,4s1.8,4,4,4
	h4v16h-4c-11.032,0-20-8.968-20-20s8.968-20,20-20h56h4h112h4h56c11.032,0,20,8.968,20,20S359.032,448,348,448z"/>
<circle style="fill:#E87B5A;" cx="232" cy="144" r="32"/>
<path style="fill:#FFFFFF;" d="M464,16H88c-10.416,0-19.216,6.712-22.528,16H416c22.056,0,40,17.944,40,40v400
	c0,2.736-0.28,5.416-0.808,8H464c13.232,0,24-10.768,24-24V40C488,26.768,477.232,16,464,16z"/>
<g>
	<path style="fill:#3C4A53;" d="M464,0H88C68.688,0,52.528,13.768,48.808,32H48C25.944,32,8,49.944,8,72v400
		c0,22.056,17.944,40,40,40h368c13.128,0,24.704-6.448,32-16.248V496h16c22.056,0,40-17.944,40-40V40C504,17.944,486.056,0,464,0z
		 M440,472c0,13.232-10.768,24-24,24H48c-13.232,0-24-10.768-24-24V72c0-13.232,10.768-24,24-24h368c13.232,0,24,10.768,24,24V472z
		 M488,456c0,13.232-10.768,24-24,24h-8.808c0.528-2.584,0.808-5.264,0.808-8V72c0-22.056-17.944-40-40-40H65.472
		C68.784,22.712,77.584,16,88,16h376c13.232,0,24,10.768,24,24V456z"/>
	<path style="fill:#3C4A53;" d="M416,96c-13.52,0-24-12.896-24-24c0-4.424-3.576-8-8-8H80c-4.424,0-8,3.576-8,8
		c0,11.104-10.488,24-24,24c-3.872,0-7.184,2.776-7.872,6.584c-0.152,0.896-0.16,1.792-0.024,2.648
		c0.688,13.16,0.16,245.512-0.104,334.744c-0.008,2.128,0.832,4.168,2.336,5.672C43.832,447.16,45.872,448,48,448
		c13.232,0,24,10.768,24,24c0,2.128,0.848,4.168,2.352,5.672c2.168,2.16,2.912,2.912,85.528,2.912
		c45.4,0,115.512-0.224,224.136-0.584c4.424-0.016,7.984-3.592,7.984-8c0-13.232,10.768-24,24-24c4.424,0,8-3.576,8-8V104
		C424,99.576,420.424,96,416,96z M408,432.808c-15.656,3.184-28.024,15.552-31.2,31.216c-106.352,0.336-256.584,0.624-289.552,0.208
		c-3.112-15.76-15.504-28.208-31.216-31.432c0.064-22.056,0.248-91.328,0.352-160.64c0.064-41.984,0.096-83.976,0.048-115.504
		c-0.032-23.184-0.056-37.08-0.408-45.544C71.184,107.752,83.76,95.168,87.12,80h289.76c3.36,15.168,15.944,27.76,31.12,31.12
		V432.808z"/>
	<path style="fill:#3C4A53;" d="M348,408h-56h-4H176h-4h-56c-11.032,0-20,8.968-20,20s8.968,20,20,20h4v-16h-4c-2.2,0-4-1.8-4-4
		s1.8-4,4-4h36.4c-0.256,1.296-0.4,2.632-0.4,4c0,11.032,8.968,20,20,20h4v-16h-4c-2.2,0-4-1.8-4-4s1.8-4,4-4h4h112h4
		c2.2,0,4,1.8,4,4s-1.8,4-4,4h-4v16h4c11.032,0,20-8.968,20-20c0-1.368-0.144-2.704-0.408-4H348c2.2,0,4,1.8,4,4s-1.8,4-4,4h-4v16h4
		c11.032,0,20-8.968,20-20S359.032,408,348,408z"/>
	<path style="fill:#3C4A53;" d="M232,192c26.472,0,48-21.528,48-48s-21.528-48-48-48s-48,21.528-48,48S205.528,192,232,192z
		 M232,112c17.648,0,32,14.352,32,32s-14.352,32-32,32s-32-14.352-32-32S214.352,112,232,112z"/>
	<rect x="112" y="376" style="fill:#3C4A53;" width="88" height="16"/>
	<rect x="264" y="376" style="fill:#3C4A53;" width="88" height="16"/>
	<rect x="112" y="208" style="fill:#3C4A53;" width="80" height="16"/>
	<rect x="208" y="208" style="fill:#3C4A53;" width="72" height="16"/>
	<rect x="296" y="208" style="fill:#3C4A53;" width="56" height="16"/>
	<rect x="112" y="240" style="fill:#3C4A53;" width="128" height="16"/>
	<rect x="256" y="240" style="fill:#3C4A53;" width="96" height="16"/>
	<rect x="112" y="272" style="fill:#3C4A53;" width="32" height="16"/>
	<rect x="160" y="272" style="fill:#3C4A53;" width="192" height="16"/>
	<rect x="112" y="304" style="fill:#3C4A53;" width="88" height="16"/>
	<rect x="216" y="304" style="fill:#3C4A53;" width="136" height="16"/>
</g>
<g>
</g>
<g>
</g>
<g>
</g>
<g>
</g>
<g>
</g>
<g>
</g>
<g>
</g>
<g>
</g>
<g>
</g>
<g>
</g>
<g>
</g>
<g>
</g>
<g>
</g>
<g>
</g>
<g>
</g>
</svg>
