<svg xmlns="http://www.w3.org/2000/svg" width="21.816" height="25.929" viewBox="0 0 21.816 25.929"><g transform="translate(0.001 0)"><path d="M15.341,111.75H13.724A1.726,1.726,0,0,0,12,113.474v9.29h1.617v-9.29A1.726,1.726,0,0,1,15.341,111.75Zm0,0" transform="translate(-11.353 -105.726)" fill="#d4e1f4"/><path d="M13.617,329.555V328.07H12v1.484a1.726,1.726,0,0,0,1.724,1.724h1.617A1.726,1.726,0,0,1,13.617,329.555Zm0,0" transform="translate(-11.353 -310.385)" fill="#d4e1f4"/><path d="M19.447,5.377H17.229V4.094h2.844A.323.323,0,0,0,20.4,3.77V1.907A1.909,1.909,0,0,0,18.489,0L18.4,0V0H6.2A2.14,2.14,0,0,0,4.064,2.113L4.046,5.377H2.371A2.374,2.374,0,0,0,0,7.748V19.169A2.373,2.373,0,0,0,2.371,21.54h8.214v3.742H6.68a.323.323,0,1,0,0,.647h8.7a.323.323,0,0,0,0-.647h-4.15V21.54h8.215a2.373,2.373,0,0,0,2.371-2.371V7.748A2.373,2.373,0,0,0,19.447,5.377Zm.3-3.47V3.447h-2.52V1.907a1.26,1.26,0,1,1,2.52,0ZM4.711,2.119A1.491,1.491,0,0,1,6.2.647H17.059a1.9,1.9,0,0,0-.478,1.26V17.038H4.626L4.689,6.024h.046V5.377H4.693ZM2.371,6.024H4.042L3.979,17.038H.647V7.748A1.726,1.726,0,0,1,2.371,6.024ZM19.447,20.893H2.371A1.726,1.726,0,0,1,.647,19.169V17.685H21.17v1.484A1.726,1.726,0,0,1,19.447,20.893Zm1.724-3.855H17.229V6.024h2.218A1.726,1.726,0,0,1,21.17,7.748Zm0,0" fill="#0635c9"/><g transform="translate(5.94 3.276)"><path d="M247.867,166.378a.324.324,0,0,0,.323.323h.993a.323.323,0,1,0,0-.647h-.993A.324.324,0,0,0,247.867,166.378Zm0,0" transform="translate(-240.445 -160.379)" fill="#1ae5be"/><path d="M159.715,166.378a.324.324,0,0,0,.323.323h3.681a.323.323,0,1,0,0-.647h-3.681A.324.324,0,0,0,159.715,166.378Zm0,0" transform="translate(-157.045 -160.379)" fill="#1ae5be"/><path d="M110.511,166.7h1.366a.323.323,0,0,0,0-.647h-1.366a.323.323,0,1,0,0,.647Zm0,0" transform="translate(-110.187 -160.379)" fill="#1ae5be"/><path d="M257.029,218.7h-.546a.323.323,0,0,0,0,.647h.546a.323.323,0,1,0,0-.647Zm0,0" transform="translate(-248.291 -210.186)" fill="#1ae5be"/><path d="M176.487,219.023a.324.324,0,0,0-.323-.323h-3.4a.323.323,0,0,0,0,.647h3.4A.323.323,0,0,0,176.487,219.023Zm0,0" transform="translate(-169.082 -210.186)" fill="#1ae5be"/><path d="M110.511,219.346H112.8a.323.323,0,1,0,0-.647h-2.284a.323.323,0,1,0,0,.647Zm0,0" transform="translate(-110.187 -210.186)" fill="#1ae5be"/><path d="M110.511,114.057h5.3a.323.323,0,0,0,0-.647h-5.3a.323.323,0,1,0,0,.647Zm0,0" transform="translate(-110.187 -110.572)" fill="#1ae5be"/><path d="M259.723,114.057a.323.323,0,0,0,0-.647h-.392a.323.323,0,0,0,0,.647Zm0,0" transform="translate(-250.985 -110.572)" fill="#1ae5be"/><path d="M233.607,113.41h-.338a.323.323,0,1,0,0,.647h.338a.323.323,0,0,0,0-.647Zm0,0" transform="translate(-226.328 -110.572)" fill="#1ae5be"/><path d="M236.484,271.991h1.624a.323.323,0,0,0,0-.647h-1.624a.323.323,0,0,0,0,.647Zm0,0" transform="translate(-229.369 -259.992)" fill="#1ae5be"/><path d="M132.438,271.667a.324.324,0,0,0,.323.323h4.481a.323.323,0,1,0,0-.647h-4.481A.323.323,0,0,0,132.438,271.667Zm0,0" transform="translate(-131.238 -259.992)" fill="#1ae5be"/><path d="M110.507,271.991h.128a.323.323,0,1,0,0-.647h-.128a.323.323,0,1,0,0,.647Zm0,0" transform="translate(-110.184 -259.992)" fill="#1ae5be"/><path d="M110.511,61.416h.444a.323.323,0,0,0,0-.647h-.444a.323.323,0,1,0,0,.647Zm0,0" transform="translate(-110.187 -60.77)" fill="#1ae5be"/><path d="M179.331,61.416h4.7a.323.323,0,1,0,0-.647h-4.7a.323.323,0,0,0,0,.647Zm0,0" transform="translate(-175.298 -60.77)" fill="#1ae5be"/><path d="M143.269,61.416h.877a.323.323,0,0,0,0-.647h-.877a.323.323,0,0,0,0,.647Zm0,0" transform="translate(-141.179 -60.77)" fill="#1ae5be"/></g></g></svg>