<svg height="455pt" viewBox="0 -13 455.284 455" width="455pt" xmlns="http://www.w3.org/2000/svg"><path d="m418.726562 15.945312c-9.773437-5.285156-21.605468-5.042968-31.152343.648438-9.542969 5.6875-15.390625 15.980469-15.386719 27.089844v73.589844h30v-73.589844c.007812-11.578125 6.355469-22.222656 16.539062-27.738282zm0 0" fill="#d4e1f4"/><path d="m42.8125 361.167969v-33.867188h-30v33.867188c0 30.640625 24.332031 55.570312 54.234375 55.570312h30c-29.902344.003907-54.234375-24.929687-54.234375-55.570312zm0 0" fill="#d4e1f4"/><path d="m142.367188 12.140625h-30c-20.207032.066406-36.628907 16.324219-36.898438 36.53125l-2.179688 266.625h30l2.179688-266.625c.269531-20.207031 16.691406-36.464844 36.898438-36.53125zm0 0" fill="#d4e1f4"/><g fill="#0635c9"><path d="m113.113281 112.449219h50.136719c3.3125 0 6-2.6875 6-6 0-3.316407-2.6875-6-6-6h-50.136719c-3.3125 0-6 2.683593-6 6 0 3.3125 2.6875 6 6 6zm0 0"/><path d="m318.574219 177.09375c0-3.316406-2.6875-6-6-6h-74.644531c-3.3125 0-6 2.683594-6 6 0 3.3125 2.6875 6 6 6h74.644531c3.3125 0 6-2.6875 6-6zm0 0"/><path d="m212.554688 183.09375c3.316406 0 6-2.6875 6-6 0-3.316406-2.683594-6-6-6h-23.375c-3.3125 0-6 2.683594-6 6 0 3.3125 2.6875 6 6 6zm0 0"/><path d="m113.113281 183.09375h50.277344c3.3125 0 6-2.6875 6-6 0-3.316406-2.6875-6-6-6h-50.277344c-3.3125 0-6 2.683594-6 6 0 3.3125 2.6875 6 6 6zm0 0"/><path d="m243.769531 241.742188c-3.3125 0-6 2.6875-6 6s2.6875 6 6 6h29.554688c3.3125 0 6-2.6875 6-6s-2.6875-6-6-6zm0 0"/><path d="m113.113281 253.742188h105.261719c3.3125 0 6-2.6875 6-6s-2.6875-6-6-6h-105.261719c-3.3125 0-6 2.6875-6 6s2.6875 6 6 6zm0 0"/><path d="m402.914062.140625c-.5 0-.992187.023437-1.488281.039063-.21875-.023438-.4375-.039063-.65625-.039063h-289.214843c-26.78125.089844-48.546876 21.640625-48.898438 48.421875l-2.179688 266.730469h-54.476562c-3.3125 0-6 2.6875-6 6v39.871093c0 35.851563 27.511719 65.253907 62.128906 67.425782.421875.09375.855469.144531 1.289063.144531h237.980469c.300781-.003906.597656-.027344.894531-.074219.945312.039063 1.890625.074219 2.847656.074219 34.453125 0 63.464844-27.425781 66.046875-62.4375.210938-3.285156-2.265625-6.125-5.546875-6.367187-3.28125-.242188-6.148437 2.207031-6.421875 5.484374-2.117188 28.78125-25.875 51.328126-54.117188 51.328126-29.902343 0-54.238281-24.929688-54.238281-55.570313v-39.871094c0-3.3125-2.683593-6-6-6h-172.386719l2.179688-266.625c.265625-20.207031 16.691406-36.464843 36.898438-36.53125h261.390624c-8.664062 8.203125-13.574218 19.609375-13.570312 31.539063v151.425781c0 3.316406 2.6875 6 6 6s6-2.683594 6-6v-65.835937h69.078125c3.316406 0 6-2.683594 6-6v-79.589844c-.023437-24.035156-19.503906-43.515625-43.539063-43.542969zm-135.421874 416.601563h-201.257813c-29.90625 0-54.234375-24.933594-54.234375-55.574219v-33.871094h226.867188v33.871094c-.058594 22.074219 10.617187 42.804687 28.625 55.574219zm166.960937-299.46875h-63.078125v-73.589844c.097656-17.347656 14.191406-31.359375 31.539062-31.359375 17.351563 0 31.441407 14.011719 31.539063 31.359375zm0 0"/><path d="m312.574219 100.449219h-14.402344c-3.3125 0-6 2.683593-6 6 0 3.3125 2.6875 6 6 6h14.402344c3.3125 0 6-2.6875 6-6 0-3.316407-2.6875-6-6-6zm0 0"/><path d="m278.882812 106.449219c0-3.316407-2.683593-6-6-6h-84.691406c-3.3125 0-6 2.683593-6 6 0 3.3125 2.6875 6 6 6h84.691406c3.316407 0 6-2.6875 6-6zm0 0"/></g><path d="m299.285156 215.878906c-35.6875 35.683594-35.6875 93.542969 0 129.230469s93.546875 35.6875 129.234375 0 35.6875-93.546875 0-129.230469c-35.710937-35.632812-93.523437-35.632812-129.234375 0zm120.75 120.746094c-30.996094 30.964844-81.21875 30.949219-112.195312-.035156-30.972656-30.984375-30.972656-81.210938 0-112.191406 30.976562-30.984376 81.199218-31.003907 112.195312-.039063 30.988282 31.007813 30.988282 81.261719 0 112.265625zm0 0" fill="#1ae5be"/><path d="m363.898438 246.042969c7.730468.007812 13.992187 6.269531 14 14 0 3.3125 2.6875 6 6 6 3.316406 0 6-2.6875 6-6-.015626-12.042969-8.285157-22.5-20-25.296875v-5.691406c0-3.316407-2.683594-6-6-6-3.3125 0-6 2.683593-6 6v5.6875c-12.824219 3.050781-21.335938 15.21875-19.804688 28.316406 1.53125 13.09375 12.621094 22.96875 25.804688 22.976562 7.613281.128906 13.726562 6.320313 13.761718 13.929688.039063 7.613281-6.015625 13.859375-13.625 14.0625-.046875 0-.089844-.003906-.136718-.003906-.042969 0-.089844.003906-.132813.003906-7.671875-.078125-13.851563-6.3125-13.867187-13.984375 0-3.316407-2.683594-6-6-6-3.3125 0-6 2.683593-6 6 .019531 12.039062 8.289062 22.5 20 25.292969v6.605468c0 3.3125 2.6875 6 6 6 3.316406 0 6-2.6875 6-6v-6.605468c12.824218-3.054688 21.335937-15.21875 19.804687-28.3125s-12.621094-22.96875-25.804687-22.980469c-7.730469 0-14-6.269531-14-14s6.269531-14 14-14zm0 0" fill="#1ae5be"/></svg>