<svg xmlns="http://www.w3.org/2000/svg" width="66.087" height="73.43" viewBox="0 0 66.087 73.43"><path d="M63.112,7.877h45.558a8.026,8.026,0,0,1,7.973,8.032V70.983a8.026,8.026,0,0,1-7.973,8.032H63.112a8.026,8.026,0,0,1-7.973-8.032V15.909A8.026,8.026,0,0,1,63.112,7.877Z" transform="translate(-50.555 -6.731)" fill="#2b414d"/><path d="M47.358,7.877H92.915a8.026,8.026,0,0,1,7.973,8.032V70.983a8.026,8.026,0,0,1-7.973,8.032H47.358a8.026,8.026,0,0,1-7.973-8.032V15.909A8.026,8.026,0,0,1,47.358,7.877Z" transform="translate(-37.093 -6.731)" fill="#ebedee"/><path d="M31.6,0H76.016a8.025,8.025,0,0,1,7.972,8.031V65.4a8.025,8.025,0,0,1-7.972,8.031H31.6A8.025,8.025,0,0,1,23.631,65.4V8.031A8.025,8.025,0,0,1,31.6,0Z" transform="translate(-23.631)" fill="#324d5b"/><g transform="translate(10.158 14.368)"><path d="M164.346,230.508h4.011a11.816,11.816,0,0,0-6.7-4.355,15.11,15.11,0,0,1,2.693,4.355m1.432,6.532h5.042a11.989,11.989,0,0,0-1.547-5.272h-4.412a22.541,22.541,0,0,1,.917,5.272m-.974,6.532h4.412a11.559,11.559,0,0,0,1.547-5.272h-4.985a19.539,19.539,0,0,1-.974,5.272m-.458,1.318a15.924,15.924,0,0,1-2.693,4.355,11.816,11.816,0,0,0,6.7-4.355Zm-1.375,0H159.59v4.7a15.929,15.929,0,0,0,3.381-4.7m1.49-6.59h-4.928v5.272h3.954a17.546,17.546,0,0,0,.974-5.272m-.974-6.532h-3.9v5.272h4.928a20,20,0,0,0-1.031-5.272m-.516-1.261a14.962,14.962,0,0,0-3.381-4.7v4.7Zm-8.137,0h3.381v-4.7a14.558,14.558,0,0,0-3.381,4.7m-1.49,6.532h4.928v-5.272h-3.954a17.9,17.9,0,0,0-.974,5.272m.974,6.532h3.9V238.3h-4.928a19.56,19.56,0,0,0,1.031,5.272m.516,1.318a14.963,14.963,0,0,0,3.381,4.7v-4.7Zm-1.375,0h-4.011a11.816,11.816,0,0,0,6.7,4.355,16.84,16.84,0,0,1-2.693-4.355m-1.375-6.59h-5.042a11.989,11.989,0,0,0,1.547,5.272H153a17.53,17.53,0,0,1-.917-5.272m.917-6.532h-4.412a11.559,11.559,0,0,0-1.547,5.272h5.042a17.851,17.851,0,0,1,.917-5.272m-3.553-1.261h4.011a15.922,15.922,0,0,1,2.693-4.355,11.272,11.272,0,0,0-6.7,4.355m-3.725,7.163A13.179,13.179,0,1,1,158.9,250.85a13.181,13.181,0,0,1-13.179-13.179" transform="translate(-138.274 -206.156)" fill="#99a6ad"/><path d="M135.207,98.462H95.1a.541.541,0,0,0-.573.573v2.292a.541.541,0,0,0,.573.573h40.11a.541.541,0,0,0,.573-.573V99.035A.574.574,0,0,0,135.207,98.462Zm-5.73,6.876h-28.65a.541.541,0,0,0-.573.573V108.2a.541.541,0,0,0,.573.573h28.65a.541.541,0,0,0,.573-.573v-2.292A.574.574,0,0,0,129.477,105.338Z" transform="translate(-94.524 -98.462)" fill="#99a6ad"/></g><path d="M31.653,0a8.022,8.022,0,0,0-7.965,7.228,3.531,3.531,0,0,0-.057.8V65.4A8.1,8.1,0,0,0,27.069,72V8.032A8.05,8.05,0,0,1,35.091,0Z" transform="translate(-23.631)" fill="#2d4552"/></svg>