<?xml version="1.0" encoding="UTF-8"?>
<!DOCTYPE svg PUBLIC "-//W3C//DTD SVG 1.1//EN" "http://www.w3.org/Graphics/SVG/1.1/DTD/svg11.dtd">
<!-- Creator: CorelDRAW 2018 (64-Bit Evaluation Version) -->
<svg xmlns="http://www.w3.org/2000/svg" xml:space="preserve" width="2.77084in" height="4.05334in" version="1.1" style="shape-rendering:geometricPrecision; text-rendering:geometricPrecision; image-rendering:optimizeQuality; fill-rule:evenodd; clip-rule:evenodd"
viewBox="0 0 2191.04 3205.18"
 xmlns:xlink="http://www.w3.org/1999/xlink">
 <defs>
  <style type="text/css">
   <![CDATA[
    .fil0 {fill:black;fill-rule:nonzero}
   ]]>
  </style>
 </defs>
 <g id="Layer_x0020_1">
  <metadata id="CorelCorpID_0Corel-Layer"/>
  <g id="_1921253995312">
   <g id="surface1">
    <path class="fil0" d="M1095.52 945.27c-396.94,0 -719.92,322.97 -719.92,719.92 0,396.94 322.97,719.92 719.92,719.92 396.94,0 719.92,-322.97 719.92,-719.92 0,-396.95 -322.97,-719.92 -719.92,-719.92zm485.25 502.01c-5.13,-1.63 -10.32,-3.26 -15.61,-4.81 -60.27,-18.08 -129.66,-32.27 -204.71,-42.21 -9.95,-75.05 -24.12,-144.44 -42.21,-204.71 -1.58,-5.29 -3.18,-10.47 -4.81,-15.61 118.44,53.41 213.93,148.9 267.34,267.34zm-539.08 -157.47c18.86,-76.25 39.5,-119.99 53.83,-142.21 14.33,22.22 34.97,65.96 53.83,142.21 7.29,29.48 13.63,61.37 19.01,94.91 -24.07,-0.8 -48.34,-1.25 -72.85,-1.25 -24.5,0 -48.8,0.45 -72.85,1.25 5.39,-33.54 11.72,-65.43 19.01,-94.91zm-463.76 375.38c22.22,-14.33 65.96,-34.97 142.21,-53.83 29.48,-7.29 61.37,-13.63 94.91,-19.02 -0.8,24.07 -1.25,48.35 -1.25,72.85 0,24.5 0.45,48.77 1.25,72.85 -33.54,-5.39 -65.43,-11.72 -94.91,-19.01 -76.25,-18.87 -119.99,-39.51 -142.21,-53.83zm32.34 217.91c5.13,1.63 10.32,3.26 15.61,4.81 60.27,18.08 129.66,32.27 204.71,42.21 9.95,75.05 24.12,144.44 42.21,204.71 1.58,5.29 3.18,10.47 4.81,15.61 -118.44,-53.41 -213.93,-148.9 -267.34,-267.34zm262.53 -687.55c-18.09,60.27 -32.27,129.66 -42.21,204.71 -75.05,9.94 -144.44,24.12 -204.71,42.21 -5.29,1.58 -10.5,3.21 -15.61,4.81 53.4,-118.44 148.9,-213.93 267.34,-267.34 -1.63,5.14 -3.23,10.32 -4.81,15.61zm276.55 845.02c-18.86,76.25 -39.5,119.97 -53.83,142.21 -14.33,-22.24 -34.97,-65.96 -53.83,-142.21 -7.29,-29.48 -13.63,-61.37 -19.01,-94.91 24.05,0.8 48.34,1.25 72.85,1.25 24.5,0 48.77,-0.45 72.85,-1.25 -5.39,33.54 -11.72,65.43 -19.01,94.91zm37.92 -283.62c-30.21,1.38 -60.85,2.15 -91.76,2.15 -30.91,0 -61.55,-0.78 -91.76,-2.15 -1.38,-30.21 -2.15,-60.85 -2.15,-91.76 0,-30.91 0.78,-61.55 2.15,-91.76 30.21,-1.38 60.87,-2.15 91.76,-2.15 30.89,0 61.55,0.78 91.76,2.15 1.38,30.21 2.13,60.87 2.13,91.76 0,30.89 -0.75,61.55 -2.13,91.76zm126.15 393.49c1.63,-5.14 3.26,-10.32 4.81,-15.61 18.09,-60.27 32.27,-129.66 42.21,-204.71 75.05,-9.94 144.44,-24.12 204.71,-42.21 5.29,-1.58 10.5,-3.21 15.61,-4.81 -53.4,118.44 -148.9,213.93 -267.34,267.34zm157.47 -431.41c-29.48,7.29 -61.37,13.63 -94.91,19.01 0.8,-24.07 1.25,-48.35 1.25,-72.85 0,-24.5 -0.45,-48.77 -1.25,-72.85 33.54,5.39 65.43,11.72 94.91,19.02 76.25,18.86 119.96,39.5 142.21,53.83 -22.25,14.33 -65.96,34.97 -142.21,53.83zm0 0z"/>
    <path class="fil0" d="M1909.33 500.81l-93.89 0 0 -406.89c0,-29.81 -14.15,-57.84 -38.13,-75.55 -23.97,-17.71 -54.91,-22.97 -83.39,-14.21l-1627.61 500.8c-39.4,12.13 -66.31,48.53 -66.31,89.76l0 2516.54c0,51.88 42.03,93.91 93.91,93.91l1815.41 0c155.34,0 281.72,-126.38 281.72,-281.72l0 -2140.94c0,-155.34 -126.38,-281.72 -281.72,-281.72zm-281.69 -279.76l0 279.76 -909.25 0 909.25 -279.76zm375.6 2702.41c0,51.78 -42.13,93.92 -93.91,93.92l-1721.52 0 0 -2328.77 1721.52 0c51.78,0 93.91,42.13 93.91,93.92l0 2140.94zm0 0z"/>
    <path class="fil0" d="M1533.72 2572.91l-876.41 0c-51.88,0 -93.91,42.03 -93.91,93.89 0,51.88 42.03,93.92 93.91,93.92l876.41 0c51.88,0 93.91,-42.03 93.91,-93.92 0,-51.85 -42.03,-93.89 -93.91,-93.89zm0 0z"/>
   </g>
  </g>
 </g>
</svg>
