<?xml version="1.0" encoding="UTF-8"?>
<svg xmlns="http://www.w3.org/2000/svg" xmlns:xlink="http://www.w3.org/1999/xlink" width="500pt" height="500pt" viewBox="0 0 500 500" version="1.1">
<g id="surface1">
<path style=" stroke:none;fill-rule:nonzero;fill:rgb(0%,0%,0%);fill-opacity:1;" d="M 249.902344 147.402344 C 188.003906 147.402344 137.640625 197.765625 137.640625 259.664062 C 137.640625 321.5625 188.003906 371.925781 249.902344 371.925781 C 311.800781 371.925781 362.164062 321.5625 362.164062 259.664062 C 362.164062 197.765625 311.800781 147.402344 249.902344 147.402344 Z M 325.570312 225.683594 C 324.769531 225.429688 323.960938 225.175781 323.136719 224.933594 C 313.738281 222.113281 302.917969 219.902344 291.214844 218.351562 C 289.664062 206.648438 287.453125 195.828125 284.632812 186.429688 C 284.386719 185.605469 284.136719 184.796875 283.882812 183.996094 C 302.351562 192.324219 317.242188 207.214844 325.570312 225.683594 Z M 241.507812 201.128906 C 244.449219 189.238281 247.667969 182.417969 249.902344 178.953125 C 252.136719 182.417969 255.355469 189.238281 258.296875 201.128906 C 259.433594 205.726562 260.421875 210.699219 261.261719 215.929688 C 257.507812 215.804688 253.722656 215.734375 249.902344 215.734375 C 246.082031 215.734375 242.292969 215.804688 238.542969 215.929688 C 239.382812 210.699219 240.371094 205.726562 241.507812 201.128906 Z M 169.191406 259.664062 C 172.65625 257.429688 179.476562 254.210938 191.367188 251.269531 C 195.964844 250.132812 200.9375 249.144531 206.167969 248.304688 C 206.042969 252.058594 205.972656 255.84375 205.972656 259.664062 C 205.972656 263.484375 206.042969 267.269531 206.167969 271.023438 C 200.9375 270.183594 195.964844 269.195312 191.367188 268.058594 C 179.476562 265.117188 172.65625 261.898438 169.191406 259.664062 Z M 174.234375 293.644531 C 175.035156 293.898438 175.84375 294.152344 176.667969 294.394531 C 186.066406 297.214844 196.886719 299.425781 208.589844 300.976562 C 210.140625 312.679688 212.351562 323.5 215.171875 332.898438 C 215.417969 333.722656 215.667969 334.53125 215.921875 335.332031 C 197.453125 327.003906 182.5625 312.113281 174.234375 293.644531 Z M 215.171875 186.429688 C 212.351562 195.828125 210.140625 206.648438 208.589844 218.351562 C 196.886719 219.902344 186.066406 222.113281 176.667969 224.933594 C 175.84375 225.179688 175.03125 225.433594 174.234375 225.683594 C 182.5625 207.214844 197.453125 192.324219 215.921875 183.996094 C 215.667969 184.796875 215.417969 185.605469 215.171875 186.429688 Z M 258.296875 318.199219 C 255.355469 330.089844 252.136719 336.90625 249.902344 340.375 C 247.667969 336.90625 244.449219 330.089844 241.507812 318.199219 C 240.371094 313.601562 239.382812 308.628906 238.542969 303.398438 C 242.292969 303.523438 246.082031 303.59375 249.902344 303.59375 C 253.722656 303.59375 257.507812 303.523438 261.261719 303.398438 C 260.421875 308.628906 259.433594 313.601562 258.296875 318.199219 Z M 264.210938 273.972656 C 259.5 274.1875 254.722656 274.308594 249.902344 274.308594 C 245.082031 274.308594 240.304688 274.1875 235.59375 273.972656 C 235.378906 269.261719 235.257812 264.484375 235.257812 259.664062 C 235.257812 254.84375 235.378906 250.066406 235.59375 245.355469 C 240.304688 245.140625 245.085938 245.019531 249.902344 245.019531 C 254.71875 245.019531 259.5 245.140625 264.210938 245.355469 C 264.425781 250.066406 264.542969 254.847656 264.542969 259.664062 C 264.542969 264.480469 264.425781 269.261719 264.210938 273.972656 Z M 283.882812 335.332031 C 284.136719 334.53125 284.390625 333.722656 284.632812 332.898438 C 287.453125 323.5 289.664062 312.679688 291.214844 300.976562 C 302.917969 299.425781 313.738281 297.214844 323.136719 294.394531 C 323.960938 294.148438 324.773438 293.894531 325.570312 293.644531 C 317.242188 312.113281 302.351562 327.003906 283.882812 335.332031 Z M 308.4375 268.058594 C 303.839844 269.195312 298.867188 270.183594 293.636719 271.023438 C 293.761719 267.269531 293.832031 263.484375 293.832031 259.664062 C 293.832031 255.84375 293.761719 252.058594 293.636719 248.304688 C 298.867188 249.144531 303.839844 250.132812 308.4375 251.269531 C 320.328125 254.210938 327.144531 257.429688 330.613281 259.664062 C 327.144531 261.898438 320.328125 265.117188 308.4375 268.058594 Z M 308.4375 268.058594 "/>
<path style=" stroke:none;fill-rule:nonzero;fill:rgb(0%,0%,0%);fill-opacity:1;" d="M 376.804688 78.09375 L 362.164062 78.09375 L 362.164062 14.644531 C 362.164062 9.996094 359.957031 5.625 356.21875 2.863281 C 352.480469 0.101562 347.65625 -0.71875 343.214844 0.648438 L 89.410156 78.742188 C 83.265625 80.632812 79.070312 86.308594 79.070312 92.738281 L 79.070312 485.160156 C 79.070312 493.25 85.625 499.804688 93.714844 499.804688 L 376.804688 499.804688 C 401.027344 499.804688 420.734375 480.097656 420.734375 455.875 L 420.734375 122.023438 C 420.734375 97.800781 401.027344 78.09375 376.804688 78.09375 Z M 332.878906 34.46875 L 332.878906 78.09375 L 191.09375 78.09375 Z M 391.449219 455.875 C 391.449219 463.949219 384.878906 470.519531 376.804688 470.519531 L 108.355469 470.519531 L 108.355469 107.378906 L 376.804688 107.378906 C 384.878906 107.378906 391.449219 113.949219 391.449219 122.023438 Z M 391.449219 455.875 "/>
<path style=" stroke:none;fill-rule:nonzero;fill:rgb(0%,0%,0%);fill-opacity:1;" d="M 318.234375 401.210938 L 181.570312 401.210938 C 173.480469 401.210938 166.925781 407.765625 166.925781 415.851562 C 166.925781 423.941406 173.480469 430.496094 181.570312 430.496094 L 318.234375 430.496094 C 326.324219 430.496094 332.878906 423.941406 332.878906 415.851562 C 332.878906 407.765625 326.324219 401.210938 318.234375 401.210938 Z M 318.234375 401.210938 "/>
</g>
</svg>
