<?xml version="1.0" encoding="UTF-8"?>
<!DOCTYPE svg PUBLIC "-//W3C//DTD SVG 1.1//EN" "http://www.w3.org/Graphics/SVG/1.1/DTD/svg11.dtd">
<!-- Creator: CorelDRAW 2017 -->
<svg xmlns="http://www.w3.org/2000/svg" xml:space="preserve" width="37px" height="37px" version="1.1" style="shape-rendering:geometricPrecision; text-rendering:geometricPrecision; image-rendering:optimizeQuality; fill-rule:evenodd; clip-rule:evenodd"
viewBox="0 0 37 37"
 xmlns:xlink="http://www.w3.org/1999/xlink">
 <defs>
  <style type="text/css">
   <![CDATA[
    .fil0 {fill:black}
   ]]>
  </style>
 </defs>
 <g id="Layer_x0020_1">
  <metadata id="CorelCorpID_0Corel-Layer"/>
  <g id="_860381327664">
   <path class="fil0" d="M19 1c-10,0 -18,8 -18,18 0,10 8,18 18,18 10,0 18,-8 18,-18 0,-10 -8,-18 -18,-18zm9 26l-1 1c0,0 -1,0 -1,0 -4,0 -9,-2 -12,-5 -3,-3 -5,-7 -5,-12 0,0 0,-1 0,-1l1 -1c1,-1 1,-1 2,-1l0 0c1,0 1,1 2,2l1 3c0,1 0,2 -1,2l-1 1c1,3 4,6 7,7l1 -1c1,-1 2,-1 2,-1l3 1c1,0 1,1 2,2l0 0c0,1 0,2 -1,2z"/>
  </g>
  <g id="_860381326544">
  </g>
  <g id="_860381326384">
  </g>
  <g id="_860381326928">
  </g>
  <g id="_860381326224">
  </g>
  <g id="_860381327184">
  </g>
  <g id="_860382504592">
  </g>
  <g id="_860382504048">
  </g>
  <g id="_860382503728">
  </g>
  <g id="_860382504944">
  </g>
  <g id="_860382504976">
  </g>
  <g id="_860382504400">
  </g>
  <g id="_860283788624">
  </g>
  <g id="_860283788112">
  </g>
  <g id="_860283788752">
  </g>
  <g id="_860283788240">
  </g>
 </g>
</svg>
