<svg xmlns="http://www.w3.org/2000/svg" width="9.492" height="15.566" viewBox="0 0 9.492 15.566">
  <g id="family" transform="translate(-260.192 -259.725)">
    <path id="Path_7215" data-name="Path 7215" d="M34.431,193.363v-2.175q0-.012,0-.025a2.021,2.021,0,0,0-1.1-1.63l-.016-.008-1.821-.777v-1.075a3.483,3.483,0,0,0,1.583-2.917v-.184a1.116,1.116,0,0,0,.644-1.29.9.9,0,0,0-.619-.655v-.985a3.548,3.548,0,1,0-7.1,0v1.013a.9.9,0,0,0-.539.627,1.116,1.116,0,0,0,.644,1.29v.184a3.485,3.485,0,0,0,1.774,3.033v.959l-1.82.777-.016.008a2.021,2.021,0,0,0-1.1,1.63c0,.008,0,.016,0,.025v2.175a.3.3,0,0,0,.3.3h8.9A.3.3,0,0,0,34.431,193.363Zm-7.837-11.721a2.955,2.955,0,1,1,5.91,0v1.017a6.067,6.067,0,0,1-3.564-.7,6.313,6.313,0,0,0,2.936-1.1.3.3,0,1,0-.361-.471c-1.6,1.226-4.464,1.1-4.493,1.095a.3.3,0,0,0-.311.278l-.065,1.069-.053-.027Zm.1,3.114v-.4a.3.3,0,0,0-.246-.292.522.522,0,0,1-.415-.637.306.306,0,0,1,.139-.193.557.557,0,0,0,.128.092l.385.2a.363.363,0,0,0,.527-.294.025.025,0,0,1,0-.005l.069-1.139c.187,0,.453,0,.771-.027a6.387,6.387,0,0,0,4.795,1.158.294.294,0,0,0,.064-.02.311.311,0,0,1,.224.231.526.526,0,0,1,.015.125.519.519,0,0,1-.43.513.3.3,0,0,0-.245.3v.4a2.89,2.89,0,0,1-5.781,0Zm2.89,3.484a3.463,3.463,0,0,0,1.307-.255v.712a3.289,3.289,0,0,1-2.424,0v-.641a3.468,3.468,0,0,0,1.117.185Zm4.248,4.826H25.531V191.2a1.424,1.424,0,0,1,.769-1.133l1.936-.826a3.884,3.884,0,0,0,2.9,0l1.936.826a1.424,1.424,0,0,1,.769,1.133Z" transform="translate(235.253 81.631)" fill="#0635c9"/>
  </g>
</svg>
