<?xml version="1.0" encoding="utf-8"?>
<!-- Generator: Adobe Illustrator 21.0.0, SVG Export Plug-In . SVG Version: 6.00 Build 0)  -->
<svg version="1.1" id="Capa_1" xmlns="http://www.w3.org/2000/svg" xmlns:xlink="http://www.w3.org/1999/xlink" x="0px" y="0px"
	 viewBox="0 0 528.9 528.9" style="enable-background:new 0 0 528.9 528.9;" xml:space="preserve">
<g>
	<g>
		<path d="M113.6,503.4c0.6,14.3,12.3,25.5,26.6,25.5h248.5c14.3,0,26-11.3,26.6-25.5L433,128.8H95.9L113.6,503.4z M320.7,221.8
			c0-6,4.8-10.8,10.8-10.8h17.3c6,0,10.8,4.8,10.8,10.8v214c0,6-4.8,10.8-10.8,10.8h-17.3c-6,0-10.8-4.8-10.8-10.8V221.8z
			 M245,221.8c0-6,4.8-10.8,10.8-10.8h17.3c6,0,10.8,4.8,10.8,10.8v214c0,6-4.8,10.8-10.8,10.8h-17.3c-6,0-10.8-4.8-10.8-10.8V221.8
			L245,221.8z M169.3,221.8c0-6,4.8-10.8,10.8-10.8h17.3c6,0,10.8,4.8,10.8,10.8v214c0,6-4.8,10.8-10.8,10.8h-17.3
			c-6,0-10.8-4.8-10.8-10.8V221.8z"/>
		<path d="M444.8,27.2H330.2V5.6c0-3.1-2.5-5.6-5.6-5.6H204.3c-3.1,0-5.6,2.5-5.6,5.6v21.7H84.1c-9.2,0-16.7,7.5-16.7,16.7v52.5
			h394.2V44C461.5,34.7,454.1,27.2,444.8,27.2z"/>
	</g>
</g>
</svg>
