<svg id="Layer_1" data-name="Layer 1" xmlns="http://www.w3.org/2000/svg" viewBox="0 0 644.9 644.87"><defs><style>.cls-1{fill:#a9a9a9;}.cls-2{fill:black;}</style></defs><title>sherkati-g</title><g id="Group_1431" data-name="Group 1431"><path id="Path_6821" data-name="Path 6821" class="cls-1" d="M594.75,505.09,549.9,517.38l-48.55-12.29-30.1,12.29L462,548.11v73.12l16.6,12.29H621.79s10.46-4.91,10.46-12.29V526Z"/><path id="Path_6822" data-name="Path 6822" class="cls-1" d="M371,147.08l-44.85,12.29L277.6,147.08l-30.1,12.29-9.22,30.73v73.12l16.6,12.29H398s10.45-4.91,10.45-12.29V168Z"/><path id="Path_6823" data-name="Path 6823" class="cls-1" d="M147.23,505.09l-44.84,12.29L53.83,505.09l-30.1,12.29-9.22,30.73v73.12l16.6,12.29H174.28s10.45-4.91,10.45-12.29V526Z"/><g id="collaboration"><g id="Group_1399" data-name="Group 1399"><g id="Group_1398" data-name="Group 1398"><path id="Path_6787" data-name="Path 6787" class="cls-2" d="M322.43,0a64.49,64.49,0,1,0,64.49,64.49h0A64.48,64.48,0,0,0,322.45,0h0Zm0,107.48a43,43,0,1,1,43-43A43,43,0,0,1,322.43,107.48Z"/></g></g><g id="Group_1401" data-name="Group 1401"><g id="Group_1400" data-name="Group 1400"><path id="Path_6788" data-name="Path 6788" class="cls-2" d="M365.43,139.72h-2.54l-2.27,1.13a85.7,85.7,0,0,1-76.37,0L282,139.72h-2.54a53.79,53.79,0,0,0-53.74,53.74V258A32.25,32.25,0,0,0,258,290.19H387A32.25,32.25,0,0,0,419.16,258h0V193.46A53.8,53.8,0,0,0,365.43,139.72ZM397.67,258a10.74,10.74,0,0,1-10.74,10.74H258a10.74,10.74,0,0,1-10.8-10.68v-64.6a32.24,32.24,0,0,1,29.95-32.16,107.54,107.54,0,0,0,90.56,0,32.24,32.24,0,0,1,30,32.16Z"/></g></g><g id="Group_1403" data-name="Group 1403"><g id="Group_1402" data-name="Group 1402"><path id="Path_6789" data-name="Path 6789" class="cls-2" d="M548.14,354.68a64.49,64.49,0,1,0,64.48,64.5h0a64.48,64.48,0,0,0-64.47-64.49Zm0,107.47a43,43,0,1,1,43-43h0A43,43,0,0,1,548.14,462.15Z"/></g></g><g id="Group_1405" data-name="Group 1405"><g id="Group_1404" data-name="Group 1404"><path id="Path_6790" data-name="Path 6790" class="cls-2" d="M591.13,494.4h-2.54l-2.27,1.07a85.7,85.7,0,0,1-76.37,0l-2.27-1.07h-2.53a53.79,53.79,0,0,0-53.74,53.74v64.48a32.23,32.23,0,0,0,32.23,32.25h129a32.25,32.25,0,0,0,32.25-32.25h0V548.14A53.8,53.8,0,0,0,591.13,494.4Zm32.24,118.22a10.75,10.75,0,0,1-10.75,10.75h-129a10.75,10.75,0,0,1-10.75-10.75V548.14a32.26,32.26,0,0,1,30-32.16,107.54,107.54,0,0,0,90.56,0,32.24,32.24,0,0,1,30,32.16Z"/></g></g><g id="Group_1407" data-name="Group 1407"><g id="Group_1406" data-name="Group 1406"><path id="Path_6791" data-name="Path 6791" class="cls-2" d="M96.73,354.68a64.49,64.49,0,1,0,64.49,64.49h0a64.48,64.48,0,0,0-64.48-64.48Zm0,107.47a43,43,0,1,1,43-43h0a43,43,0,0,1-43,43Z"/></g></g><g id="Group_1409" data-name="Group 1409"><g id="Group_1408" data-name="Group 1408"><path id="Path_6792" data-name="Path 6792" class="cls-2" d="M139.72,494.4h-2.53l-2.27,1.07a85.72,85.72,0,0,1-76.38,0l-2.26-1.07H53.74A53.79,53.79,0,0,0,0,548.14v64.48a32.25,32.25,0,0,0,32.24,32.25h129a32.23,32.23,0,0,0,32.24-32.24h0V548.14A53.79,53.79,0,0,0,139.72,494.4ZM172,612.62a10.74,10.74,0,0,1-10.73,10.75h-129A10.74,10.74,0,0,1,21.5,612.65V548.14A32.24,32.24,0,0,1,51.5,516a107.55,107.55,0,0,0,90.5,0,32.26,32.26,0,0,1,30,32.16Z"/></g></g><g id="Group_1411" data-name="Group 1411"><g id="Group_1410" data-name="Group 1410"><path id="Path_6793" data-name="Path 6793" class="cls-2" d="M429.07,545.82h0A10.73,10.73,0,0,0,415,540.15h0a238.4,238.4,0,0,1-153.3,10.55l10.06-3a10.75,10.75,0,0,0-6-20.64l-43,12.61c-.16,0-.28.18-.43.24a10.41,10.41,0,0,0-2.77,1.53,8.55,8.55,0,0,0-1.08.68,10.47,10.47,0,0,0-2.63,3.65,10.91,10.91,0,0,0-.82,4.44,31.82,31.82,0,0,0,1.08,4.3c.06.16,0,.33.12.48l21.5,41.13a10.76,10.76,0,0,0,19.06-10h0L248,569.45a258.7,258.7,0,0,0,175.39-9.54,10.75,10.75,0,0,0,5.72-14.09Z"/></g></g><g id="Group_1413" data-name="Group 1413"><g id="Group_1412" data-name="Group 1412"><path id="Path_6794" data-name="Path 6794" class="cls-2" d="M609.48,282.59a10.74,10.74,0,0,0-15.19,0h0L579.07,297.8A257.57,257.57,0,0,0,423.38,85a10.75,10.75,0,1,0-8.51,19.75H415a236.11,236.11,0,0,1,142.17,190L545,282.59a10.75,10.75,0,0,0-15.2,15.2L562,330a10.72,10.72,0,0,0,15.16,0l0,0h0l32.25-32.24a10.74,10.74,0,0,0,0-15.2Z"/></g></g><g id="Group_1415" data-name="Group 1415"><g id="Group_1414" data-name="Group 1414"><path id="Path_6795" data-name="Path 6795" class="cls-2" d="M236.14,93.06a9.74,9.74,0,0,0-.28-1.85c0-.1-.12-.17-.16-.27a.62.62,0,0,1,0-.27,9.85,9.85,0,0,0-1-1.48,11.44,11.44,0,0,0-1.22-1.78,10.67,10.67,0,0,0-2.1-1.43,10.18,10.18,0,0,0-1.2-.87l-43-19.63A10.75,10.75,0,0,0,178.25,85l22.26,10.17a257.58,257.58,0,0,0-136,227.24,10.75,10.75,0,0,0,21.5,0h0a236.06,236.06,0,0,1,116.32-203.6l-7.77,16.24a10.73,10.73,0,1,0,19.34,9.31h0l21.5-44.85a.52.52,0,0,1,.09-.34,10.6,10.6,0,0,0,.58-2.28,12,12,0,0,0,.41-1.77A10.94,10.94,0,0,0,236.14,93.06Z"/></g></g></g></g></svg>