<svg id="Layer_1" data-name="Layer 1" xmlns="http://www.w3.org/2000/svg" viewBox="0 0 603.7 543.33"><defs><style>.cls-1{fill:#dac2d4;}.cls-2{fill:#1976d2;}</style></defs><title>shoghli</title><g id="Group_1429" data-name="Group 1429"><path id="Path_6816" data-name="Path 6816" class="cls-1" d="M588.47,104.52c-2.37-.6-573.89,0-573.89,0V361l258.28,38.42v-42H329v42l265.38-42Z"/><path id="suitcase" class="cls-2" d="M573.52,90.56H442.72V50.31A50.37,50.37,0,0,0,392.41,0H211.3A50.37,50.37,0,0,0,161,50.31V90.56H30.18A30.18,30.18,0,0,0,0,120.74v224a30.33,30.33,0,0,0,20.12,28.41v140a30.19,30.19,0,0,0,30.19,30.18H553.4a30.19,30.19,0,0,0,30.19-30.18v-140a30.34,30.34,0,0,0,20.11-28.42v-224a30.18,30.18,0,0,0-30.18-30.18ZM181.11,50.31A30.19,30.19,0,0,1,211.3,20.12H392.41a30.19,30.19,0,0,1,30.18,30.19V90.56H402.47V50.31a10.05,10.05,0,0,0-10.06-10.06H211.3a10.05,10.05,0,0,0-10.06,10.06V90.56H181.11ZM382.35,90.56h-161V60.37h161ZM563.46,513.15a10.06,10.06,0,0,1-10.06,10.06H50.31a10.05,10.05,0,0,1-10.06-10.06h0V376.58l221.36,30.53v25.54a30.19,30.19,0,0,0,30.18,30.19h20.12a30.19,30.19,0,0,0,30.19-30.19V407.11l221.36-30.53ZM322,432.65a10.07,10.07,0,0,1-10.07,10.07H291.79a10.06,10.06,0,0,1-10.06-10.06h0V372.29a10.06,10.06,0,0,1,10.06-10.07h20.12A10.07,10.07,0,0,1,322,372.28h0Zm261.6-87.94a10.06,10.06,0,0,1-8.65,10l-2.79.38-230,31.72V372.28a30.19,30.19,0,0,0-30.19-30.18H291.79a30.18,30.18,0,0,0-30.18,30.19v14.5L28.79,354.69a10.08,10.08,0,0,1-8.67-10v-224a10.06,10.06,0,0,1,10.07-10.06H573.52a10.05,10.05,0,0,1,10.06,10.06h0Z"/></g></svg>