<svg id="Layer_1" data-name="Layer 1" xmlns="http://www.w3.org/2000/svg" viewBox="0 0 712.04 582.75"><defs><style>.cls-1{fill:#a9a9a9;}.cls-2{fill:#707070;}</style></defs><title>tahsili-g</title><g id="Group_1436" data-name="Group 1436"><path id="Path_6817" data-name="Path 6817" class="cls-1" d="M9.54,144,357.3,277.3,704.21,144v48.55L352.89,323.2,9.54,192.56Z" transform="translate(0 0)"/><path id="Path_6818" data-name="Path 6818" class="cls-1" d="M534.5,516.11l-28.25,22.65,10.07,27.13s35.52,3.92,36.92,2,9-25.17,8.39-29.09S534.5,516.11,534.5,516.11Z" transform="translate(0 0)"/><path id="cap" class="cls-2" d="M705.19,132.39,480,46.55a10.58,10.58,0,0,0-7.68,19.71l.15.06,199.24,76L533.82,194.86,360.36,116.32a10.58,10.58,0,0,0-8.72,19.27h0L506,205.48,356,262.65,40.26,142.27,356,21.89l77.81,29.67a10.57,10.57,0,1,0,7.74-19.68h0l-.2-.08L359.77.69a10.64,10.64,0,0,0-7.54,0L6.81,132.39A10.59,10.59,0,0,0,0,142.27v48.3a10.59,10.59,0,0,0,6.81,9.88l107.86,41.12v36.64a10.58,10.58,0,0,0,21.15.21V249.63l216.41,82.51a10.54,10.54,0,0,0,7.54,0L522.9,270V437.3A358.28,358.28,0,0,1,135.82,403V320.5a10.57,10.57,0,1,0-21.14-.2h0v87.83a10.52,10.52,0,0,0,4,8.25A379.35,379.35,0,0,0,522.9,461v42.8a40.18,40.18,0,1,0,21.15,0v-54a377.66,377.66,0,0,0,49.33-33.44,10.58,10.58,0,0,0,4-8.25V241.56l107.85-41.12a10.57,10.57,0,0,0,6.81-9.88V142.27A10.59,10.59,0,0,0,705.19,132.39ZM552.5,542.56a19,19,0,1,1-19-19h0A19,19,0,0,1,552.5,542.56ZM21.15,157.62,345.42,281.26v25.65L21.15,183.27ZM366.58,306.91V281.26l156.32-59.6v25.66ZM576.19,403A353.67,353.67,0,0,1,544,425.27V261.88l32.14-12.25ZM544,239.25V213.6l146.81-56v25.65Z" transform="translate(0 0)"/></g></svg>