<svg xmlns="http://www.w3.org/2000/svg" xmlns:xlink="http://www.w3.org/1999/xlink" width="25.422" height="25.421" viewBox="0 0 25.422 25.421"><defs><clipPath id="a"><rect width="25.422" height="25.421" fill="none"/></clipPath></defs><g clip-path="url(#a)"><path d="M51.771,40.682H47.6a22.789,22.789,0,0,0-.8-5.717h2.732a.406.406,0,1,0,0-.811H46.557A12.787,12.787,0,0,0,44.9,30.765a.406.406,0,1,0-.66.471A11.71,11.71,0,0,1,45.7,34.154H41.494V30.406a.406.406,0,0,0-.811,0v3.749H36.474a11.71,11.71,0,0,1,1.458-2.917.406.406,0,0,0-.66-.471,12.787,12.787,0,0,0-1.653,3.389H32.639a.406.406,0,1,0,0,.811h2.732a22.794,22.794,0,0,0-.8,5.717H30.406a.406.406,0,1,0,0,.811h4.167a22.789,22.789,0,0,0,.8,5.717H32.639a.406.406,0,1,0,0,.811H35.62a12.786,12.786,0,0,0,1.653,3.389.406.406,0,1,0,.66-.472,11.71,11.71,0,0,1-1.459-2.918h4.209V51.77a.406.406,0,0,0,.811,0V48.022H45.7a11.708,11.708,0,0,1-1.459,2.918.406.406,0,1,0,.66.472,12.787,12.787,0,0,0,1.653-3.389h2.981a.406.406,0,1,0,0-.811H46.805a22.789,22.789,0,0,0,.8-5.717h4.167a.406.406,0,1,0,0-.811Zm-5.807-5.717a21.808,21.808,0,0,1,.829,5.717h-5.3V34.966Zm-9.751,0h4.47v5.717h-5.3A21.81,21.81,0,0,1,36.213,34.966Zm0,12.245a21.808,21.808,0,0,1-.829-5.717h5.3v5.717Zm9.751,0h-4.47V41.494h5.3A21.81,21.81,0,0,1,45.964,47.211Z" transform="translate(-28.378 -28.377)" fill="#9c90f9"/><path d="M21.7,3.723A12.711,12.711,0,0,0,2.1,19.705L.543,24.365a.406.406,0,0,0,.513.513l4.66-1.553A12.711,12.711,0,0,0,21.7,3.723ZM12.711,24.61a11.835,11.835,0,0,1-6.7-2.068.406.406,0,0,0-.357-.05L1.57,23.852l1.36-4.079a.406.406,0,0,0-.05-.357,11.9,11.9,0,1,1,9.831,5.195Z" fill="#9c90f9"/></g></svg>