<?xml version="1.0" encoding="utf-8"?>
<!-- Generator: Adobe Illustrator 21.0.0, SVG Export Plug-In . SVG Version: 6.00 Build 0)  -->
<svg version="1.1" id="Layer_1" xmlns="http://www.w3.org/2000/svg" xmlns:xlink="http://www.w3.org/1999/xlink" x="0px" y="0px"
	 viewBox="0 0 496 336" style="enable-background:new 0 0 496 336;" xml:space="preserve">
<style type="text/css">
	.st0{fill:#E70013;}
	.st1{fill:#D30B0B;}
	.st2{fill:#C10000;}
	.st3{fill:#FFFFFF;}
	.st4{fill:#C6C1AF;}
</style>
<path class="st0" d="M496,289.6c0,27.2-21.6,46.4-48,46.4H48c-26.4,0-48-19.2-48-46.4V46.4C0,19.2,21.6,0,48,0h400
	c26.4,0,48,19.2,48,46.4V289.6z"/>
<path class="st1" d="M48,0h400c26.4,0,48,19.2,48,46.4v243.2c0,27.2-25.6,46.4-52,46.4"/>
<g>
	<path class="st2" d="M48,0h400c26.4,0,48,19.2,48,46.4V136"/>
	<path class="st2" d="M496,288.8c0,30.4-21.6,47.2-48,47.2H48c-26.4,0-48-20.8-48-48"/>
</g>
<path class="st3" d="M248,57.6c-60.8,0-110.4,49.6-110.4,110.4S187.2,278.4,248,278.4S358.4,228.8,358.4,168S308.8,57.6,248,57.6z
	 M310.4,197.6l-33.6-11.2L256,215.2v-36L221.6,168l34.4-11.2v-36l20.8,29.6l34.4-11.2L289.6,168L310.4,197.6z M270.4,101.6
	c-36.8,0-66.4,29.6-66.4,66.4s29.6,66.4,66.4,66.4c17.6,0,32.8-6.4,44.8-17.6C300,237.6,276,251.2,248,251.2
	c-45.6,0-83.2-36.8-83.2-83.2c0-45.6,36.8-83.2,83.2-83.2c27.2,0,52,13.6,67.2,34.4C303.2,108,287.2,101.6,270.4,101.6z"/>
<path class="st4" d="M248,57.6c-33.6,0-64,15.2-84,39.2l20.8,17.6C200,96.8,222.4,84.8,248,84.8c27.2,0,52,13.6,67.2,34.4
	c-12-11.2-28-17.6-44.8-17.6c-25.6,0-47.2,14.4-58.4,35.2l29.6,24.8l15.2-4.8v-36l20.8,29.6l34.4-11.2L289.6,168l20.8,29.6
	l-33.6-11.2l-2.4,4l36,31.2c1.6-1.6,3.2-2.4,4.8-4c-1.6,1.6-2.4,3.2-4,4.8L332,240c16.8-19.2,26.4-44,26.4-72
	C358.4,107.2,308.8,57.6,248,57.6z"/>
</svg>
