<?xml version="1.0" encoding="utf-8"?>
<!-- Generator: Adobe Illustrator 21.0.0, SVG Export Plug-In . SVG Version: 6.00 Build 0)  -->
<svg version="1.1" id="Layer_1" xmlns="http://www.w3.org/2000/svg" xmlns:xlink="http://www.w3.org/1999/xlink" x="0px" y="0px"
	 viewBox="0 0 496 336" style="enable-background:new 0 0 496 336;" xml:space="preserve">
<style type="text/css">
	.st0{fill:#4C4B4B;}
	.st1{fill:#49A948;}
	.st2{fill:#FFFFFF;}
	.st3{fill:#3F3F3F;}
	.st4{fill:#369933;}
	.st5{fill:#CFE5E2;}
	.st6{fill:#1C8417;}
	.st7{fill:#BAD3CF;}
	.st8{fill:#232222;}
	.st9{fill:#E73B36;}
	.st10{fill:#DB2C2C;}
	.st11{fill:#CC2525;}
	.st12{fill:#B70808;}
</style>
<path class="st0" d="M0,224v65.6C0,316.8,21.6,336,48,336h400c26.4,0,48-19.2,48-46.4V224H0z"/>
<path class="st1" d="M448,0H48C21.6,0,0,19.2,0,46.4V112h496V46.4C496,19.2,474.4,0,448,0z"/>
<rect y="112" class="st2" width="496" height="112"/>
<path class="st3" d="M446.4,336c26.4,0,49.6-19.2,49.6-46.4V224H315.2L446.4,336z"/>
<path class="st4" d="M448,0H48l132.8,112H496V46.4C496,19.2,474.4,0,448,0z"/>
<polygon class="st5" points="316,224 496,224 496,112 180,112 "/>
<path class="st6" d="M448,0H48l370.4,112H496V46.4C496,19.2,474.4,0,448,0z"/>
<polygon class="st7" points="496,134.4 496,112 414.4,112 "/>
<path class="st8" d="M496,288.8c0,28.8-21.6,47.2-48,47.2H48c-26.4,0-48-20.8-48-48"/>
<path class="st9" d="M120,0H48C21.6,0,0,19.2,0,46.4v64v0.8v114.4v0.8v64C0,316.8,21.6,336,48,336h72V0z"/>
<polygon class="st10" points="120,112 0,112 0,111.2 0,224.8 0,224 120,224 "/>
<path class="st11" d="M0,224v2.4v64C0,316.8,21.6,336,48,336h72V224H0z"/>
<path class="st12" d="M0,288c0,32,21.6,48,48,48h72v-48H0z"/>
<polygon class="st11" points="120,0 48,0 120,60.8 "/>
<polygon class="st12" points="120,0 48,0 120,20 "/>
</svg>
