<?xml version="1.0"?>
<svg xmlns="http://www.w3.org/2000/svg" id="Layer_1" data-name="Layer 1" viewBox="0 0 512 512" width="512" height="512"><title>edit</title><path d="M217.679,25.521a95.787,95.787,0,0,0-105.764,95.242v47.8a7,7,0,0,0,3.222-.837,6.667,6.667,0,0,0,3.541-5.646l1.7-37.313a7,7,0,0,1,7.352-6.673c.057,0,1.552.076,4.22.122A95.908,95.908,0,0,1,217.679,25.521Z" style="fill:#d4e1f4"/><path d="M140.424,236.593q-.063-.334-.158-.66l-5.145-17.7a7,7,0,0,0-5.691-5.7,18.855,18.855,0,0,1-15.018-23.04,12.136,12.136,0,0,1,8.567-8.981,20.762,20.762,0,0,0,29.685-17.8l1.387-30.464c2.286.021,5.081.018,8.3-.039-.337-.285-.679-.561-1.015-.85-11.7.832-21.257.946-27.289.889l-1.387,30.464a20.712,20.712,0,0,1-29.685,17.8,12.136,12.136,0,0,0-8.567,8.981,18.855,18.855,0,0,0,15.018,23.04,7,7,0,0,1,5.691,5.7l5.145,17.7q.094.326.158.66a88.584,88.584,0,0,0,97.233,71.777A88.82,88.82,0,0,1,140.424,236.593Z" style="fill:#d4e1f4"/><path d="M188.95,341.575V321.229a102.553,102.553,0,0,1-20-5.858v26.2a89.9,89.9,0,0,0,48.707,8.19A89.185,89.185,0,0,1,188.95,341.575Z" style="fill:#d4e1f4"/><path d="M77.048,410.437q.207-.884.447-1.76c4.092-14.9,15.66-26.755,30.945-31.71l61.2-19.842q-4.275-1.683-8.414-3.757l-72.784,23.6c-15.285,4.955-26.853,16.809-30.945,31.71q-.241.877-.447,1.76A43.4,43.4,0,0,0,56,420.383v44.6H76v-44.6A43.4,43.4,0,0,1,77.048,410.437Z" style="fill:#d4e1f4"/><rect x="300.478" y="382.454" width="108.592" height="11.314" transform="translate(-170.525 364.537) rotate(-45)" style="fill:#d4e1f4"/><polygon points="313.54 443.463 305.54 435.463 289.842 482.559 301.842 478.559 313.54 443.463" style="fill:#d4e1f4"/><polygon points="407.066 343.818 423.245 327.639 415.245 319.639 399.066 335.818 436.582 373.335 436.582 373.335 407.066 343.818" style="fill:#d4e1f4"/><path d="M260.7,341.058V308.739a102.709,102.709,0,0,0,48.221-68.846l4.156-14.294a32.869,32.869,0,0,0,21.759-39.065,26.184,26.184,0,0,0-17.059-18.722V121.136a109.763,109.763,0,0,0-219.526,0V167.8a26.188,26.188,0,0,0-17.1,18.739,32.873,32.873,0,0,0,21.76,39.064l4.157,14.294a102.7,102.7,0,0,0,48.22,68.846v32.319L84.461,364.021c-19.782,6.415-34.783,21.862-40.126,41.319q-.314,1.14-.582,2.291a57.134,57.134,0,0,0-1.414,13.125v51.6a7,7,0,0,0,7,7H285.865v-14H56.339v-44.6a43.4,43.4,0,0,1,1.048-9.946q.206-.883.447-1.76c4.092-14.9,15.66-26.755,30.945-31.71l72.784-23.6a103.994,103.994,0,0,0,92.867,0l72.784,23.6a48.428,48.428,0,0,1,14.329,7.46l8.447-11.164a62.437,62.437,0,0,0-18.458-9.615ZM216.881,123.164c8.93,9.5,36.973,34.724,86.9,39.854v3.6c-19.339-.475-76.524-4.723-121.933-36.891l.627-.081A298.269,298.269,0,0,0,216.881,123.164Zm-104.626-2.028a95.763,95.763,0,0,1,191.526,0V148.92c-36.665-4.161-60.156-20.4-71.32-30.247,18.726-6.144,34.675-14.222,47.672-24.19a7,7,0,1,0-8.52-11.109c-26.564,20.373-63.982,28.839-90.695,32.354a327.251,327.251,0,0,1-52.851,2.736,7,7,0,0,0-7.351,6.673l-1.7,37.313a6.669,6.669,0,0,1-3.541,5.647,7,7,0,0,1-3.221.837Zm8.509,115.829a6.676,6.676,0,0,0-.159-.66l-5.145-17.7a7,7,0,0,0-5.691-5.7,18.783,18.783,0,0,1-15.557-18.543,18.986,18.986,0,0,1,.539-4.5,12.134,12.134,0,0,1,8.566-8.979A20.763,20.763,0,0,0,133,163.087l1.387-30.464c6.03.057,15.593-.057,27.29-.889,31.215,26.769,69.542,38.645,96.493,43.9,29.769,5.805,51.951,5.032,52.877,5,.155-.006.307-.025.46-.041a12.246,12.246,0,0,1,9.731,9.273,18.853,18.853,0,0,1-15.016,23.042,7,7,0,0,0-5.692,5.7l-5.145,17.7a6.676,6.676,0,0,0-.159.66,88.761,88.761,0,0,1-174.465,0Zm48.525,104.983v-26.2a102.589,102.589,0,0,0,77.415,0v26.2A90.033,90.033,0,0,1,169.289,341.948Z" style="fill:#0635c9"/><path d="M420.2,304.789a7,7,0,0,0-9.9,0L297.531,417.554c-.094.094-.177.2-.265.293-.051.058-.105.112-.155.171a7.2,7.2,0,0,0-.492.66l0,0a6.837,6.837,0,0,0-.4.711c-.027.055-.052.111-.077.166a6.732,6.732,0,0,0-.255.626c-.012.036-.03.068-.042.1l-23.708,71.123a7,7,0,0,0,8.854,8.855L352.11,476.56c.038-.013.074-.032.111-.045q.312-.109.613-.249c.059-.027.118-.053.176-.082a7.038,7.038,0,0,0,.7-.393l.019-.011a7.075,7.075,0,0,0,.656-.49c.06-.05.115-.105.174-.157.1-.087.2-.17.292-.264L467.611,362.105a7,7,0,0,0,0-9.9Zm-70.3,155.23L312.381,422.5l76.786-76.785,37.516,37.516Zm-60.054,22.54,15.7-47.1,31.4,31.4Zm146.74-109.224-37.516-37.517,16.179-16.179,37.517,37.516Z" style="fill:#1ae5be"/></svg>
